<svg width="364" height="162" viewBox="0 0 364 162" fill="none" xmlns="http://www.w3.org/2000/svg">
<path d="M60.9657 114.267C60.9657 116.907 60.3177 119.331 59.0217 121.539C57.7257 123.699 55.9977 125.427 53.8377 126.723C51.6777 128.019 49.2537 128.667 46.5657 128.667H2.78972V121.467H46.5657C48.5817 121.467 50.2857 120.771 51.6777 119.379C53.0697 117.939 53.7657 116.235 53.7657 114.267C53.7657 112.299 53.0697 110.619 51.6777 109.227C50.2857 107.787 48.5817 107.067 46.5657 107.067H17.1897C14.5497 107.067 12.1257 106.419 9.91772 105.123C7.75772 103.827 6.02972 102.099 4.73372 99.9387C3.43772 97.7307 2.78972 95.3067 2.78972 92.6667C2.78972 90.0267 3.43772 87.6267 4.73372 85.4667C6.02972 83.2587 7.75772 81.5067 9.91772 80.2107C12.1257 78.9147 14.5497 78.2667 17.1897 78.2667H57.3657V85.4667H17.1897C15.2217 85.4667 13.5177 86.1867 12.0777 87.6267C10.6857 89.0187 9.98972 90.6987 9.98972 92.6667C9.98972 94.6347 10.6857 96.3387 12.0777 97.7787C13.5177 99.1707 15.2217 99.8667 17.1897 99.8667H46.5657C49.2537 99.8667 51.6777 100.515 53.8377 101.811C55.9977 103.107 57.7257 104.859 59.0217 107.067C60.3177 109.227 60.9657 111.627 60.9657 114.267Z" fill="#1950A0"/>
<path d="M79.5644 128.667H72.3644V78.2667H79.5644V128.667Z" fill="#1950A0"/>
<path d="M154.03 103.467C154.03 106.971 153.478 110.259 152.374 113.331C151.27 116.355 149.686 119.019 147.622 121.323C145.606 123.627 143.158 125.427 140.278 126.723C137.446 128.019 134.302 128.667 130.846 128.667H105.43V121.467H130.846C134.158 121.467 137.014 120.651 139.414 119.019C141.814 117.387 143.638 115.227 144.886 112.539C146.182 109.803 146.83 106.779 146.83 103.467C146.83 100.155 146.182 97.1307 144.886 94.3947C143.638 91.6587 141.814 89.4987 139.414 87.9147C137.014 86.2827 134.158 85.4667 130.846 85.4667H101.83V128.667H94.63V78.2667H130.846C134.302 78.2667 137.446 78.9147 140.278 80.2107C143.158 81.5067 145.606 83.3307 147.622 85.6827C149.686 87.9867 151.27 90.6747 152.374 93.7467C153.478 96.7707 154.03 100.011 154.03 103.467Z" fill="#1950A0"/>
<path d="M202.543 128.667H195.343V103.467C195.343 100.155 194.527 97.1307 192.895 94.3947C191.311 91.6587 189.151 89.4987 186.415 87.9147C183.679 86.2827 180.655 85.4667 177.343 85.4667H173.455V128.667H166.255V78.2667H177.343C181.903 78.2667 186.079 79.3947 189.871 81.6507C193.711 83.9067 196.735 86.8587 198.943 90.5067C201.151 86.8587 204.151 83.9067 207.943 81.6507C211.783 79.3947 215.983 78.2667 220.543 78.2667H231.631V128.667H224.431V85.4667H220.543C217.231 85.4667 214.207 86.2827 211.471 87.9147C208.783 89.4987 206.623 91.6587 204.991 94.3947C203.359 97.1307 202.543 100.155 202.543 103.467V128.667Z" fill="#1950A0"/>
<path d="M298.867 128.667H246.739V78.2667H298.867V85.4667H253.939V121.467H298.867V128.667ZM292.747 107.067H257.539V99.8667H292.747V107.067Z" fill="#1950A0"/>
<path d="M338.131 128.667H330.931V85.4667H305.443V78.2667H363.619V85.4667H338.131V128.667Z" fill="#1950A0"/>
<path d="M0.0820312 156.211C0.314453 156.243 0.565104 156.27 0.833984 156.293C1.06641 156.315 1.33073 156.334 1.62695 156.347C1.92773 156.361 2.24447 156.368 2.57715 156.368C3.01921 156.368 3.37012 156.34 3.62988 156.286C3.88965 156.227 4.08789 156.142 4.22461 156.033C4.36133 155.919 4.44792 155.78 4.48438 155.616C4.52539 155.452 4.5459 155.263 4.5459 155.048C4.5459 154.88 4.53678 154.727 4.51855 154.59C4.50488 154.449 4.46842 154.324 4.40918 154.215C4.34993 154.105 4.26562 154.012 4.15625 153.934C4.04688 153.852 3.89648 153.786 3.70508 153.736L1.71582 153.216C1.40137 153.134 1.13477 153.025 0.916016 152.888C0.697266 152.747 0.519531 152.569 0.382812 152.355C0.250651 152.141 0.152669 151.883 0.0888672 151.583C0.0296224 151.277 0 150.92 0 150.509C0 150.026 0.0729167 149.609 0.21875 149.258C0.364583 148.903 0.569661 148.611 0.833984 148.383C1.10286 148.156 1.42643 147.987 1.80469 147.878C2.18294 147.768 2.60449 147.714 3.06934 147.714C3.45671 147.714 3.8099 147.736 4.12891 147.782C4.45247 147.823 4.73047 147.868 4.96289 147.919C5.23633 147.978 5.4847 148.044 5.70801 148.117V149.382C5.50293 149.354 5.28646 149.329 5.05859 149.306C4.86263 149.284 4.6416 149.265 4.39551 149.252C4.15397 149.233 3.90332 149.224 3.64355 149.224C3.23796 149.224 2.90527 149.238 2.64551 149.265C2.38574 149.293 2.18066 149.35 2.03027 149.436C1.87988 149.523 1.77507 149.646 1.71582 149.805C1.65658 149.965 1.62695 150.177 1.62695 150.441C1.62695 150.587 1.63379 150.717 1.64746 150.831C1.66569 150.945 1.70215 151.045 1.75684 151.132C1.81608 151.218 1.89811 151.293 2.00293 151.357C2.1123 151.421 2.25814 151.48 2.44043 151.535L4.29297 152.068C4.52995 152.136 4.73958 152.209 4.92188 152.287C5.10872 152.36 5.27051 152.449 5.40723 152.553C5.54395 152.654 5.66016 152.772 5.75586 152.909C5.85612 153.046 5.93587 153.21 5.99512 153.401C6.05436 153.588 6.09766 153.809 6.125 154.064C6.15234 154.319 6.16602 154.613 6.16602 154.946C6.16602 155.465 6.12044 155.912 6.0293 156.286C5.94271 156.655 5.77637 156.958 5.53027 157.195C5.28418 157.427 4.94466 157.598 4.51172 157.708C4.08333 157.822 3.52734 157.879 2.84375 157.879C2.3151 157.879 1.87533 157.854 1.52441 157.803C1.17806 157.758 0.895508 157.705 0.676758 157.646C0.426107 157.578 0.227865 157.5 0.0820312 157.414V156.211Z" fill="#1950A0"/>
<path d="M9.5209 149.231C9.33405 149.231 9.1791 149.217 9.05606 149.19C8.93757 149.163 8.83958 149.115 8.76211 149.047C8.68919 148.978 8.63678 148.885 8.60488 148.766C8.57754 148.648 8.56387 148.495 8.56387 148.308C8.56387 148.121 8.57754 147.969 8.60488 147.85C8.63678 147.727 8.68919 147.629 8.76211 147.556C8.83958 147.483 8.93757 147.433 9.05606 147.406C9.1791 147.379 9.33405 147.365 9.5209 147.365C9.70775 147.365 9.86042 147.379 9.97891 147.406C10.102 147.433 10.1999 147.483 10.2729 147.556C10.3458 147.629 10.3959 147.727 10.4232 147.85C10.4506 147.969 10.4643 148.121 10.4643 148.308C10.4643 148.495 10.4506 148.648 10.4232 148.766C10.3959 148.885 10.3458 148.978 10.2729 149.047C10.1999 149.115 10.102 149.163 9.97891 149.19C9.86042 149.217 9.70775 149.231 9.5209 149.231ZM8.70742 150.455H10.3344V157.667H8.70742V150.455Z" fill="#1950A0"/>
<path d="M12.9715 156.279C13.172 156.325 13.3953 156.366 13.6414 156.402C13.851 156.434 14.0971 156.461 14.3797 156.484C14.6668 156.507 14.9812 156.518 15.323 156.518C15.6967 156.518 15.993 156.505 16.2117 156.477C16.4305 156.45 16.5945 156.404 16.7039 156.34C16.8178 156.272 16.8908 156.181 16.9227 156.067C16.9546 155.953 16.9705 155.81 16.9705 155.636C16.9705 155.545 16.9637 155.463 16.95 155.39C16.9409 155.313 16.9135 155.244 16.868 155.185C16.827 155.121 16.7632 155.069 16.6766 155.028C16.5945 154.982 16.4829 154.948 16.3416 154.925L14.8309 154.645C14.4845 154.586 14.1928 154.506 13.9559 154.406C13.7189 154.306 13.5275 154.173 13.3816 154.009C13.2404 153.841 13.1378 153.636 13.074 153.394C13.0148 153.148 12.9852 152.85 12.9852 152.499C12.9852 151.742 13.2358 151.179 13.7371 150.81C14.243 150.437 14.963 150.25 15.8973 150.25C16.2254 150.25 16.5262 150.27 16.7996 150.311C17.0776 150.348 17.3191 150.391 17.5242 150.441C17.7612 150.496 17.9777 150.557 18.1736 150.626V151.788C17.9549 151.751 17.727 151.719 17.49 151.692C17.285 151.669 17.0548 151.646 16.7996 151.624C16.549 151.601 16.2938 151.59 16.034 151.59C15.7378 151.59 15.4917 151.603 15.2957 151.631C15.0997 151.653 14.9448 151.694 14.8309 151.754C14.7169 151.813 14.6372 151.89 14.5916 151.986C14.546 152.077 14.5232 152.193 14.5232 152.335C14.5232 152.444 14.5324 152.542 14.5506 152.629C14.5688 152.715 14.6076 152.793 14.6668 152.861C14.726 152.929 14.8081 152.989 14.9129 153.039C15.0177 153.089 15.159 153.13 15.3367 153.162L16.9021 153.456C17.2075 153.515 17.465 153.592 17.6746 153.688C17.8888 153.784 18.062 153.914 18.1941 154.078C18.3263 154.242 18.422 154.451 18.4813 154.707C18.5405 154.957 18.5701 155.267 18.5701 155.636C18.5701 155.987 18.5337 156.302 18.4607 156.58C18.3924 156.858 18.2511 157.092 18.0369 157.284C17.8227 157.475 17.5197 157.621 17.1277 157.721C16.7358 157.826 16.2186 157.879 15.576 157.879C15.2205 157.879 14.8855 157.854 14.5711 157.803C14.2566 157.758 13.9809 157.705 13.7439 157.646C13.466 157.578 13.2085 157.5 12.9715 157.414V156.279Z" fill="#1950A0"/>
<path d="M21.5012 151.801H20.4348V150.455H21.5012V148.93L23.1213 148.568V150.455H24.9396V151.801H23.1213V155.677C23.1213 155.846 23.1327 155.985 23.1555 156.094C23.1828 156.204 23.2284 156.293 23.2922 156.361C23.3605 156.425 23.454 156.47 23.5725 156.498C23.6955 156.52 23.8527 156.532 24.0441 156.532C24.2219 156.532 24.3814 156.53 24.5227 156.525C24.6685 156.516 24.7915 156.507 24.8918 156.498C25.0103 156.489 25.1151 156.477 25.2062 156.464V157.544C25.0467 157.607 24.8758 157.664 24.6936 157.715C24.534 157.756 24.3472 157.792 24.133 157.824C23.9188 157.86 23.6841 157.879 23.4289 157.879C23.0734 157.879 22.7727 157.844 22.5266 157.776C22.285 157.708 22.0868 157.605 21.9318 157.468C21.7814 157.327 21.6721 157.152 21.6037 156.942C21.5354 156.728 21.5012 156.479 21.5012 156.197V151.801Z" fill="#1950A0"/>
<path d="M27.0094 153.982C27.0094 153.23 27.1074 152.613 27.3033 152.13C27.4993 151.646 27.759 151.266 28.0826 150.988C28.4062 150.71 28.7753 150.519 29.19 150.414C29.6048 150.304 30.0309 150.25 30.4684 150.25C31.0198 150.25 31.4755 150.325 31.8355 150.475C32.2001 150.626 32.4895 150.838 32.7037 151.111C32.9179 151.38 33.0683 151.703 33.1549 152.082C33.2415 152.46 33.2848 152.877 33.2848 153.333C33.2848 153.547 33.2757 153.768 33.2574 153.996C33.2438 154.224 33.2232 154.458 33.1959 154.7H28.6773C28.6819 155.023 28.7161 155.297 28.7799 155.52C28.8482 155.739 28.9576 155.919 29.108 156.06C29.263 156.197 29.4658 156.297 29.7164 156.361C29.9716 156.42 30.2883 156.45 30.6666 156.45C30.9856 156.45 31.2841 156.443 31.5621 156.429C31.8401 156.411 32.0839 156.391 32.2936 156.368C32.5396 156.345 32.763 156.315 32.9635 156.279V157.414C32.7311 157.5 32.4781 157.578 32.2047 157.646C31.9723 157.705 31.7011 157.758 31.3912 157.803C31.0813 157.854 30.7509 157.879 30.4 157.879C29.8622 157.879 29.3837 157.81 28.9645 157.673C28.5452 157.541 28.1897 157.323 27.898 157.017C27.6109 156.707 27.3899 156.304 27.235 155.807C27.0846 155.311 27.0094 154.702 27.0094 153.982ZM31.7877 153.483V153.223C31.7877 152.95 31.7695 152.713 31.733 152.512C31.7011 152.307 31.6327 152.139 31.5279 152.007C31.4231 151.874 31.275 151.776 31.0836 151.713C30.8922 151.649 30.637 151.617 30.318 151.617C29.9762 151.617 29.6959 151.658 29.4771 151.74C29.263 151.817 29.0943 151.936 28.9713 152.095C28.8528 152.25 28.7708 152.444 28.7252 152.676C28.6842 152.909 28.6637 153.178 28.6637 153.483H31.7877Z" fill="#1950A0"/>
<path d="M35.5254 150.455H36.7148L36.9131 150.988C37.1683 150.851 37.4395 150.728 37.7266 150.619C37.9727 150.528 38.2507 150.443 38.5605 150.366C38.875 150.288 39.1986 150.25 39.5312 150.25C39.9323 150.25 40.2627 150.313 40.5225 150.441C40.7868 150.569 40.9919 150.76 41.1377 151.015C41.2516 150.951 41.3997 150.876 41.582 150.79C41.7643 150.703 41.9694 150.621 42.1973 150.544C42.4251 150.462 42.6758 150.393 42.9492 150.339C43.2227 150.279 43.5098 150.25 43.8105 150.25C44.4759 150.25 44.9613 150.439 45.2666 150.817C45.5765 151.191 45.7314 151.77 45.7314 152.553V157.667H44.1045V152.868C44.1045 152.649 44.0908 152.467 44.0635 152.321C44.0361 152.171 43.9837 152.05 43.9062 151.959C43.8288 151.863 43.7217 151.795 43.585 151.754C43.4528 151.713 43.2773 151.692 43.0586 151.692C42.8854 151.692 42.7168 151.703 42.5527 151.726C42.3932 151.744 42.2406 151.77 42.0947 151.801C41.9535 151.833 41.8236 151.868 41.7051 151.904C41.5911 151.94 41.4932 151.972 41.4111 152C41.4248 152.118 41.4339 152.243 41.4385 152.376C41.443 152.508 41.4453 152.615 41.4453 152.697V157.667H39.8252V152.868C39.8252 152.649 39.8092 152.467 39.7773 152.321C39.75 152.171 39.6976 152.05 39.6201 151.959C39.5426 151.863 39.4378 151.795 39.3057 151.754C39.1781 151.713 39.014 151.692 38.8135 151.692C38.5856 151.692 38.3714 151.71 38.1709 151.747C37.9749 151.779 37.7995 151.813 37.6445 151.849C37.4622 151.895 37.2959 151.945 37.1455 152V157.667H35.5254V150.455Z" fill="#1950A0"/>
<path d="M48.3275 155.623C48.3275 155.213 48.3868 154.866 48.5053 154.584C48.6283 154.301 48.7924 154.073 48.9975 153.9C49.2071 153.727 49.4509 153.602 49.7289 153.524C50.0115 153.447 50.3145 153.408 50.6381 153.408C50.9662 153.408 51.2624 153.426 51.5268 153.463C51.7956 153.499 52.0281 153.54 52.224 153.586C52.4473 153.636 52.6501 153.693 52.8324 153.757V153.087C52.8324 152.918 52.8256 152.777 52.8119 152.663C52.8028 152.544 52.7846 152.442 52.7572 152.355C52.7299 152.269 52.6911 152.196 52.641 152.136C52.5954 152.077 52.5385 152.02 52.4701 151.965C52.3243 151.861 52.1238 151.785 51.8686 151.74C51.6133 151.694 51.2807 151.672 50.8705 151.672C50.6107 151.672 50.3578 151.681 50.1117 151.699C49.8702 151.713 49.6537 151.731 49.4623 151.754C49.239 151.776 49.0271 151.801 48.8266 151.829V150.694C49.0089 150.621 49.2344 150.555 49.5033 150.496C49.7312 150.446 50.016 150.4 50.3578 150.359C50.6996 150.313 51.1052 150.291 51.5746 150.291C51.8891 150.291 52.1671 150.304 52.4086 150.332C52.6547 150.354 52.8712 150.395 53.058 150.455C53.2449 150.514 53.4089 150.591 53.5502 150.687C53.696 150.783 53.8259 150.901 53.9398 151.043C54.0355 151.161 54.1153 151.286 54.1791 151.419C54.2429 151.551 54.2953 151.706 54.3363 151.883C54.3773 152.061 54.4047 152.266 54.4184 152.499C54.4366 152.727 54.4457 152.993 54.4457 153.298V157.667H53.0717L52.9486 157.133C52.7481 157.275 52.5271 157.4 52.2855 157.509C52.0759 157.601 51.8298 157.685 51.5473 157.762C51.2693 157.84 50.9617 157.879 50.6244 157.879C50.2143 157.879 49.8633 157.838 49.5717 157.756C49.28 157.673 49.0408 157.544 48.8539 157.366C48.6716 157.188 48.5372 156.956 48.4506 156.669C48.3686 156.382 48.3275 156.033 48.3275 155.623ZM49.9887 155.623C49.9887 155.823 50.0137 155.983 50.0639 156.101C50.114 156.22 50.1869 156.311 50.2826 156.375C50.3783 156.434 50.4945 156.473 50.6312 156.491C50.7725 156.509 50.932 156.518 51.1098 156.518C51.3422 156.518 51.5609 156.498 51.766 156.457C51.9756 156.411 52.1602 156.363 52.3197 156.313C52.502 156.254 52.6729 156.186 52.8324 156.108V154.857C52.6866 154.83 52.5294 154.805 52.3607 154.782C52.2149 154.759 52.0486 154.741 51.8617 154.727C51.6794 154.709 51.4857 154.7 51.2807 154.7C51.0528 154.7 50.8568 154.711 50.6928 154.734C50.5333 154.752 50.4011 154.796 50.2963 154.864C50.1915 154.928 50.114 155.021 50.0639 155.144C50.0137 155.263 49.9887 155.422 49.9887 155.623Z" fill="#1950A0"/>
<path d="M62.3928 149.231C62.2059 149.231 62.051 149.217 61.9279 149.19C61.8094 149.163 61.7115 149.115 61.634 149.047C61.5611 148.978 61.5087 148.885 61.4768 148.766C61.4494 148.648 61.4357 148.495 61.4357 148.308C61.4357 148.121 61.4494 147.969 61.4768 147.85C61.5087 147.727 61.5611 147.629 61.634 147.556C61.7115 147.483 61.8094 147.433 61.9279 147.406C62.051 147.379 62.2059 147.365 62.3928 147.365C62.5796 147.365 62.7323 147.379 62.8508 147.406C62.9738 147.433 63.0718 147.483 63.1447 147.556C63.2176 147.629 63.2678 147.727 63.2951 147.85C63.3225 147.969 63.3361 148.121 63.3361 148.308C63.3361 148.495 63.3225 148.648 63.2951 148.766C63.2678 148.885 63.2176 148.978 63.1447 149.047C63.0718 149.115 62.9738 149.163 62.8508 149.19C62.7323 149.217 62.5796 149.231 62.3928 149.231ZM61.5793 150.455H63.2062V157.667H61.5793V150.455Z" fill="#1950A0"/>
<path d="M66.1852 150.455H67.3746L67.5729 150.988C67.8235 150.851 68.0969 150.728 68.3932 150.619C68.6484 150.528 68.9423 150.443 69.275 150.366C69.6077 150.288 69.9632 150.25 70.3414 150.25C71.0523 150.25 71.5764 150.437 71.9137 150.81C72.2555 151.179 72.4264 151.76 72.4264 152.553V157.667H70.8063V152.752C70.8063 152.565 70.7926 152.405 70.7652 152.273C70.7424 152.136 70.69 152.027 70.608 151.945C70.526 151.858 70.4075 151.795 70.2525 151.754C70.0976 151.713 69.8902 151.692 69.6305 151.692C69.357 151.692 69.1087 151.71 68.8854 151.747C68.662 151.779 68.4706 151.813 68.3111 151.849C68.1243 151.895 67.9557 151.945 67.8053 152V157.667H66.1852V150.455Z" fill="#1950A0"/>
<path d="M75.7949 151.801H74.7285V150.455H75.7949V148.93L77.415 148.568V150.455H79.2334V151.801H77.415V155.677C77.415 155.846 77.4264 155.985 77.4492 156.094C77.4766 156.204 77.5221 156.293 77.5859 156.361C77.6543 156.425 77.7477 156.47 77.8662 156.498C77.9893 156.52 78.1465 156.532 78.3379 156.532C78.5156 156.532 78.6751 156.53 78.8164 156.525C78.9622 156.516 79.0853 156.507 79.1855 156.498C79.304 156.489 79.4089 156.477 79.5 156.464V157.544C79.3405 157.607 79.1696 157.664 78.9873 157.715C78.8278 157.756 78.641 157.792 78.4268 157.824C78.2126 157.86 77.9779 157.879 77.7227 157.879C77.3672 157.879 77.0664 157.844 76.8203 157.776C76.5788 157.708 76.3805 157.605 76.2256 157.468C76.0752 157.327 75.9658 157.152 75.8975 156.942C75.8291 156.728 75.7949 156.479 75.7949 156.197V151.801Z" fill="#1950A0"/>
<path d="M81.3031 153.982C81.3031 153.23 81.4011 152.613 81.5971 152.13C81.793 151.646 82.0528 151.266 82.3764 150.988C82.6999 150.71 83.0691 150.519 83.4838 150.414C83.8985 150.304 84.3246 150.25 84.7621 150.25C85.3135 150.25 85.7693 150.325 86.1293 150.475C86.4939 150.626 86.7833 150.838 86.9975 151.111C87.2117 151.38 87.362 151.703 87.4486 152.082C87.5352 152.46 87.5785 152.877 87.5785 153.333C87.5785 153.547 87.5694 153.768 87.5512 153.996C87.5375 154.224 87.517 154.458 87.4896 154.7H82.9711C82.9756 155.023 83.0098 155.297 83.0736 155.52C83.142 155.739 83.2514 155.919 83.4018 156.06C83.5567 156.197 83.7595 156.297 84.0102 156.361C84.2654 156.42 84.5821 156.45 84.9604 156.45C85.2794 156.45 85.5779 156.443 85.8559 156.429C86.1339 156.411 86.3777 156.391 86.5873 156.368C86.8334 156.345 87.0567 156.315 87.2572 156.279V157.414C87.0248 157.5 86.7719 157.578 86.4984 157.646C86.266 157.705 85.9949 157.758 85.685 157.803C85.3751 157.854 85.0447 157.879 84.6937 157.879C84.156 157.879 83.6775 157.81 83.2582 157.673C82.8389 157.541 82.4835 157.323 82.1918 157.017C81.9047 156.707 81.6837 156.304 81.5287 155.807C81.3783 155.311 81.3031 154.702 81.3031 153.982ZM86.0814 153.483V153.223C86.0814 152.95 86.0632 152.713 86.0268 152.512C85.9949 152.307 85.9265 152.139 85.8217 152.007C85.7169 151.874 85.5687 151.776 85.3773 151.713C85.1859 151.649 84.9307 151.617 84.6117 151.617C84.2699 151.617 83.9896 151.658 83.7709 151.74C83.5567 151.817 83.3881 151.936 83.265 152.095C83.1465 152.25 83.0645 152.444 83.0189 152.676C82.9779 152.909 82.9574 153.178 82.9574 153.483H86.0814Z" fill="#1950A0"/>
<path d="M89.8191 147.044H91.4393V157.667H89.8191V147.044Z" fill="#1950A0"/>
<path d="M95.2522 149.231C95.0653 149.231 94.9104 149.217 94.7873 149.19C94.6688 149.163 94.5708 149.115 94.4934 149.047C94.4204 148.978 94.368 148.885 94.3361 148.766C94.3088 148.648 94.2951 148.495 94.2951 148.308C94.2951 148.121 94.3088 147.969 94.3361 147.85C94.368 147.727 94.4204 147.629 94.4934 147.556C94.5708 147.483 94.6688 147.433 94.7873 147.406C94.9104 147.379 95.0653 147.365 95.2522 147.365C95.439 147.365 95.5917 147.379 95.7102 147.406C95.8332 147.433 95.9312 147.483 96.0041 147.556C96.077 147.629 96.1272 147.727 96.1545 147.85C96.1818 147.969 96.1955 148.121 96.1955 148.308C96.1955 148.495 96.1818 148.648 96.1545 148.766C96.1272 148.885 96.077 148.978 96.0041 149.047C95.9312 149.115 95.8332 149.163 95.7102 149.19C95.5917 149.217 95.439 149.231 95.2522 149.231ZM94.4387 150.455H96.0656V157.667H94.4387V150.455Z" fill="#1950A0"/>
<path d="M99.6119 159.471C99.776 159.508 99.9651 159.537 100.179 159.56C100.362 159.583 100.58 159.601 100.836 159.615C101.095 159.633 101.382 159.642 101.697 159.642C102.08 159.642 102.39 159.626 102.627 159.594C102.868 159.567 103.055 159.515 103.187 159.437C103.324 159.364 103.417 159.262 103.467 159.13C103.518 159.002 103.543 158.84 103.543 158.644V157.386C103.338 157.473 103.121 157.55 102.893 157.619C102.693 157.678 102.465 157.73 102.21 157.776C101.959 157.826 101.695 157.851 101.417 157.851C100.938 157.851 100.526 157.787 100.179 157.66C99.8375 157.528 99.5549 157.311 99.3316 157.01C99.1129 156.71 98.9511 156.315 98.8463 155.828C98.7415 155.34 98.6891 154.741 98.6891 154.03C98.6891 153.447 98.746 152.925 98.86 152.465C98.9739 152 99.1402 151.608 99.359 151.289C99.5823 150.965 99.8557 150.719 100.179 150.55C100.507 150.377 100.883 150.291 101.307 150.291C101.667 150.291 101.995 150.327 102.292 150.4C102.592 150.473 102.852 150.553 103.071 150.639C103.322 150.744 103.549 150.86 103.754 150.988L103.939 150.455H105.17V158.747C105.17 159.18 105.106 159.544 104.978 159.84C104.855 160.141 104.666 160.383 104.411 160.565C104.16 160.752 103.846 160.884 103.467 160.962C103.089 161.044 102.649 161.085 102.148 161.085C101.829 161.085 101.519 161.062 101.218 161.016C100.918 160.975 100.646 160.927 100.405 160.873C100.122 160.813 99.858 160.743 99.6119 160.661V159.471ZM101.991 156.395C102.182 156.395 102.369 156.388 102.551 156.375C102.738 156.356 102.905 156.336 103.05 156.313C103.224 156.29 103.388 156.261 103.543 156.224V152.095C103.365 152.032 103.173 151.975 102.968 151.924C102.795 151.879 102.597 151.838 102.374 151.801C102.15 151.765 101.92 151.747 101.683 151.747C101.442 151.747 101.239 151.785 101.075 151.863C100.911 151.94 100.779 152.07 100.678 152.253C100.578 152.435 100.505 152.676 100.46 152.977C100.419 153.278 100.398 153.652 100.398 154.098C100.398 154.508 100.412 154.859 100.439 155.151C100.466 155.443 100.532 155.682 100.637 155.869C100.742 156.051 100.902 156.186 101.116 156.272C101.33 156.354 101.622 156.395 101.991 156.395Z" fill="#1950A0"/>
<path d="M107.547 153.982C107.547 153.23 107.645 152.613 107.841 152.13C108.037 151.646 108.297 151.266 108.62 150.988C108.944 150.71 109.313 150.519 109.728 150.414C110.142 150.304 110.568 150.25 111.006 150.25C111.557 150.25 112.013 150.325 112.373 150.475C112.738 150.626 113.027 150.838 113.241 151.111C113.455 151.38 113.606 151.703 113.692 152.082C113.779 152.46 113.822 152.877 113.822 153.333C113.822 153.547 113.813 153.768 113.795 153.996C113.781 154.224 113.761 154.458 113.733 154.7H109.215C109.219 155.023 109.254 155.297 109.317 155.52C109.386 155.739 109.495 155.919 109.646 156.06C109.8 156.197 110.003 156.297 110.254 156.361C110.509 156.42 110.826 156.45 111.204 156.45C111.523 156.45 111.822 156.443 112.1 156.429C112.378 156.411 112.621 156.391 112.831 156.368C113.077 156.345 113.3 156.315 113.501 156.279V157.414C113.269 157.5 113.016 157.578 112.742 157.646C112.51 157.705 112.239 157.758 111.929 157.803C111.619 157.854 111.288 157.879 110.938 157.879C110.4 157.879 109.921 157.81 109.502 157.673C109.083 157.541 108.727 157.323 108.436 157.017C108.148 156.707 107.927 156.304 107.772 155.807C107.622 155.311 107.547 154.702 107.547 153.982ZM112.325 153.483V153.223C112.325 152.95 112.307 152.713 112.271 152.512C112.239 152.307 112.17 152.139 112.065 152.007C111.961 151.874 111.812 151.776 111.621 151.713C111.43 151.649 111.174 151.617 110.855 151.617C110.514 151.617 110.233 151.658 110.015 151.74C109.8 151.817 109.632 151.936 109.509 152.095C109.39 152.25 109.308 152.444 109.263 152.676C109.222 152.909 109.201 153.178 109.201 153.483H112.325Z" fill="#1950A0"/>
<path d="M116.063 150.455H117.252L117.451 150.988C117.701 150.851 117.975 150.728 118.271 150.619C118.526 150.528 118.82 150.443 119.153 150.366C119.485 150.288 119.841 150.25 120.219 150.25C120.93 150.25 121.454 150.437 121.791 150.81C122.133 151.179 122.304 151.76 122.304 152.553V157.667H120.684V152.752C120.684 152.565 120.67 152.405 120.643 152.273C120.62 152.136 120.568 152.027 120.486 151.945C120.404 151.858 120.285 151.795 120.13 151.754C119.975 151.713 119.768 151.692 119.508 151.692C119.235 151.692 118.986 151.71 118.763 151.747C118.54 151.779 118.348 151.813 118.189 151.849C118.002 151.895 117.833 151.945 117.683 152V157.667H116.063V150.455Z" fill="#1950A0"/>
<path d="M125.673 151.801H124.606V150.455H125.673V148.93L127.293 148.568V150.455H129.111V151.801H127.293V155.677C127.293 155.846 127.304 155.985 127.327 156.094C127.354 156.204 127.4 156.293 127.464 156.361C127.532 156.425 127.625 156.47 127.744 156.498C127.867 156.52 128.024 156.532 128.216 156.532C128.393 156.532 128.553 156.53 128.694 156.525C128.84 156.516 128.963 156.507 129.063 156.498C129.182 156.489 129.287 156.477 129.378 156.464V157.544C129.218 157.607 129.047 157.664 128.865 157.715C128.706 157.756 128.519 157.792 128.304 157.824C128.09 157.86 127.856 157.879 127.6 157.879C127.245 157.879 126.944 157.844 126.698 157.776C126.457 157.708 126.258 157.605 126.103 157.468C125.953 157.327 125.844 157.152 125.775 156.942C125.707 156.728 125.673 156.479 125.673 156.197V151.801Z" fill="#1950A0"/>
<path d="M131.181 153.982C131.181 153.23 131.279 152.613 131.475 152.13C131.671 151.646 131.931 151.266 132.254 150.988C132.578 150.71 132.947 150.519 133.362 150.414C133.776 150.304 134.202 150.25 134.64 150.25C135.191 150.25 135.647 150.325 136.007 150.475C136.372 150.626 136.661 150.838 136.875 151.111C137.089 151.38 137.24 151.703 137.326 152.082C137.413 152.46 137.456 152.877 137.456 153.333C137.456 153.547 137.447 153.768 137.429 153.996C137.415 154.224 137.395 154.458 137.367 154.7H132.849C132.853 155.023 132.888 155.297 132.951 155.52C133.02 155.739 133.129 155.919 133.279 156.06C133.434 156.197 133.637 156.297 133.888 156.361C134.143 156.42 134.46 156.45 134.838 156.45C135.157 156.45 135.456 156.443 135.734 156.429C136.012 156.411 136.255 156.391 136.465 156.368C136.711 156.345 136.934 156.315 137.135 156.279V157.414C136.903 157.5 136.65 157.578 136.376 157.646C136.144 157.705 135.873 157.758 135.563 157.803C135.253 157.854 134.922 157.879 134.571 157.879C134.034 157.879 133.555 157.81 133.136 157.673C132.717 157.541 132.361 157.323 132.07 157.017C131.782 156.707 131.561 156.304 131.406 155.807C131.256 155.311 131.181 154.702 131.181 153.982ZM135.959 153.483V153.223C135.959 152.95 135.941 152.713 135.904 152.512C135.873 152.307 135.804 152.139 135.699 152.007C135.595 151.874 135.446 151.776 135.255 151.713C135.064 151.649 134.808 151.617 134.489 151.617C134.148 151.617 133.867 151.658 133.649 151.74C133.434 151.817 133.266 151.936 133.143 152.095C133.024 152.25 132.942 152.444 132.897 152.676C132.856 152.909 132.835 153.178 132.835 153.483H135.959Z" fill="#1950A0"/>
<path d="M145.861 157.879C145.456 157.879 145.098 157.812 144.788 157.68C144.483 157.548 144.228 157.334 144.022 157.038C143.817 156.737 143.66 156.345 143.551 155.862C143.446 155.379 143.391 154.789 143.387 154.091C143.378 153.399 143.428 152.809 143.537 152.321C143.651 151.833 143.813 151.437 144.022 151.132C144.237 150.822 144.496 150.598 144.802 150.462C145.112 150.32 145.46 150.25 145.848 150.25C146.203 150.25 146.527 150.277 146.818 150.332C147.11 150.386 147.363 150.446 147.577 150.509C147.828 150.587 148.049 150.671 148.24 150.762V147.044H149.867V157.667H148.466L148.37 157.092C148.165 157.238 147.933 157.37 147.673 157.489C147.45 157.589 147.183 157.678 146.873 157.756C146.568 157.838 146.23 157.879 145.861 157.879ZM146.436 156.423C146.673 156.423 146.898 156.407 147.112 156.375C147.331 156.338 147.525 156.297 147.693 156.252C147.889 156.201 148.072 156.142 148.24 156.074V151.952C148.053 151.906 147.855 151.863 147.646 151.822C147.468 151.79 147.263 151.76 147.03 151.733C146.802 151.706 146.568 151.692 146.326 151.692C146.076 151.692 145.87 151.735 145.711 151.822C145.551 151.904 145.426 152.043 145.335 152.239C145.244 152.435 145.18 152.692 145.144 153.011C145.112 153.33 145.096 153.725 145.096 154.194C145.096 154.6 145.112 154.944 145.144 155.226C145.175 155.509 145.239 155.739 145.335 155.917C145.431 156.094 145.565 156.224 145.738 156.306C145.916 156.384 146.148 156.423 146.436 156.423Z" fill="#1950A0"/>
<path d="M152.231 153.982C152.231 153.23 152.329 152.613 152.525 152.13C152.721 151.646 152.981 151.266 153.304 150.988C153.628 150.71 153.997 150.519 154.412 150.414C154.826 150.304 155.252 150.25 155.69 150.25C156.241 150.25 156.697 150.325 157.057 150.475C157.422 150.626 157.711 150.838 157.925 151.111C158.139 151.38 158.29 151.703 158.376 152.082C158.463 152.46 158.506 152.877 158.506 153.333C158.506 153.547 158.497 153.768 158.479 153.996C158.465 154.224 158.445 154.458 158.417 154.7H153.899C153.903 155.023 153.938 155.297 154.001 155.52C154.07 155.739 154.179 155.919 154.329 156.06C154.484 156.197 154.687 156.297 154.938 156.361C155.193 156.42 155.51 156.45 155.888 156.45C156.207 156.45 156.506 156.443 156.784 156.429C157.062 156.411 157.305 156.391 157.515 156.368C157.761 156.345 157.984 156.315 158.185 156.279V157.414C157.953 157.5 157.7 157.578 157.426 157.646C157.194 157.705 156.923 157.758 156.613 157.803C156.303 157.854 155.972 157.879 155.621 157.879C155.084 157.879 154.605 157.81 154.186 157.673C153.767 157.541 153.411 157.323 153.12 157.017C152.832 156.707 152.611 156.304 152.456 155.807C152.306 155.311 152.231 154.702 152.231 153.982ZM157.009 153.483V153.223C157.009 152.95 156.991 152.713 156.954 152.512C156.923 152.307 156.854 152.139 156.749 152.007C156.645 151.874 156.496 151.776 156.305 151.713C156.114 151.649 155.858 151.617 155.539 151.617C155.198 151.617 154.917 151.658 154.699 151.74C154.484 151.817 154.316 151.936 154.193 152.095C154.074 152.25 153.992 152.444 153.947 152.676C153.906 152.909 153.885 153.178 153.885 153.483H157.009Z" fill="#1950A0"/>
<path d="M166.911 157.879C166.506 157.879 166.148 157.812 165.838 157.68C165.533 157.548 165.278 157.334 165.072 157.038C164.867 156.737 164.71 156.345 164.601 155.862C164.496 155.379 164.441 154.789 164.437 154.091C164.428 153.399 164.478 152.809 164.587 152.321C164.701 151.833 164.863 151.437 165.072 151.132C165.287 150.822 165.546 150.598 165.852 150.462C166.162 150.32 166.51 150.25 166.898 150.25C167.253 150.25 167.577 150.277 167.868 150.332C168.16 150.386 168.413 150.446 168.627 150.509C168.878 150.587 169.099 150.671 169.29 150.762V147.044H170.917V157.667H169.516L169.42 157.092C169.215 157.238 168.983 157.37 168.723 157.489C168.5 157.589 168.233 157.678 167.923 157.756C167.618 157.838 167.28 157.879 166.911 157.879ZM167.486 156.423C167.723 156.423 167.948 156.407 168.162 156.375C168.381 156.338 168.575 156.297 168.743 156.252C168.939 156.201 169.122 156.142 169.29 156.074V151.952C169.103 151.906 168.905 151.863 168.696 151.822C168.518 151.79 168.313 151.76 168.08 151.733C167.852 151.706 167.618 151.692 167.376 151.692C167.126 151.692 166.92 151.735 166.761 151.822C166.601 151.904 166.476 152.043 166.385 152.239C166.294 152.435 166.23 152.692 166.194 153.011C166.162 153.33 166.146 153.725 166.146 154.194C166.146 154.6 166.162 154.944 166.194 155.226C166.225 155.509 166.289 155.739 166.385 155.917C166.481 156.094 166.615 156.224 166.788 156.306C166.966 156.384 167.198 156.423 167.486 156.423Z" fill="#1950A0"/>
<path d="M173.281 154.057C173.281 153.447 173.347 152.907 173.479 152.437C173.611 151.963 173.816 151.564 174.094 151.241C174.377 150.917 174.732 150.671 175.161 150.503C175.589 150.334 176.102 150.25 176.699 150.25C177.296 150.25 177.809 150.334 178.237 150.503C178.67 150.671 179.025 150.917 179.303 151.241C179.581 151.564 179.786 151.963 179.919 152.437C180.051 152.907 180.117 153.447 180.117 154.057C180.117 154.668 180.051 155.213 179.919 155.691C179.786 156.165 179.581 156.564 179.303 156.887C179.025 157.211 178.67 157.457 178.237 157.626C177.809 157.794 177.296 157.879 176.699 157.879C176.102 157.879 175.589 157.794 175.161 157.626C174.732 157.457 174.377 157.211 174.094 156.887C173.816 156.564 173.611 156.165 173.479 155.691C173.347 155.213 173.281 154.668 173.281 154.057ZM176.699 156.505C177.059 156.505 177.351 156.452 177.574 156.347C177.797 156.238 177.97 156.081 178.093 155.876C178.216 155.666 178.298 155.411 178.339 155.11C178.385 154.805 178.408 154.454 178.408 154.057C178.408 153.665 178.385 153.319 178.339 153.018C178.298 152.713 178.216 152.458 178.093 152.253C177.97 152.043 177.797 151.886 177.574 151.781C177.351 151.672 177.059 151.617 176.699 151.617C176.343 151.617 176.054 151.672 175.831 151.781C175.607 151.886 175.432 152.043 175.304 152.253C175.181 152.458 175.097 152.713 175.051 153.018C175.01 153.319 174.99 153.665 174.99 154.057C174.99 154.454 175.01 154.805 175.051 155.11C175.097 155.411 175.181 155.666 175.304 155.876C175.432 156.081 175.607 156.238 175.831 156.347C176.054 156.452 176.343 156.505 176.699 156.505Z" fill="#1950A0"/>
<path d="M182.002 154.057C182.002 153.374 182.084 152.793 182.248 152.314C182.417 151.836 182.642 151.448 182.925 151.152C183.212 150.851 183.547 150.632 183.93 150.496C184.312 150.359 184.72 150.291 185.153 150.291C185.486 150.291 185.785 150.313 186.049 150.359C186.313 150.4 186.539 150.446 186.726 150.496C186.944 150.555 187.133 150.621 187.293 150.694V151.815C187.138 151.801 186.969 151.785 186.787 151.767C186.632 151.758 186.457 151.749 186.261 151.74C186.065 151.726 185.86 151.719 185.646 151.719C185.304 151.719 185.01 151.749 184.764 151.808C184.518 151.868 184.317 151.981 184.162 152.15C184.007 152.314 183.893 152.549 183.82 152.854C183.747 153.155 183.711 153.551 183.711 154.044C183.711 154.545 183.752 154.951 183.834 155.26C183.921 155.57 184.05 155.812 184.224 155.985C184.397 156.154 184.613 156.268 184.873 156.327C185.133 156.382 185.44 156.409 185.796 156.409C186.019 156.409 186.224 156.404 186.411 156.395C186.603 156.382 186.769 156.366 186.91 156.347C187.074 156.329 187.222 156.306 187.354 156.279V157.414C187.209 157.496 187.031 157.569 186.821 157.632C186.644 157.687 186.42 157.737 186.151 157.783C185.882 157.828 185.568 157.851 185.208 157.851C184.766 157.851 184.349 157.79 183.957 157.667C183.57 157.548 183.23 157.343 182.938 157.051C182.651 156.76 182.424 156.372 182.255 155.889C182.086 155.402 182.002 154.791 182.002 154.057Z" fill="#1950A0"/>
<path d="M189.698 150.455H191.318V155.37C191.318 155.561 191.329 155.723 191.352 155.855C191.379 155.987 191.434 156.097 191.516 156.183C191.598 156.265 191.717 156.327 191.871 156.368C192.026 156.404 192.234 156.423 192.494 156.423C192.767 156.423 193.015 156.409 193.239 156.382C193.462 156.35 193.653 156.315 193.813 156.279C194 156.233 194.168 156.183 194.319 156.129V150.455H195.939V157.667H194.749L194.558 157.133C194.303 157.275 194.027 157.4 193.731 157.509C193.476 157.601 193.179 157.685 192.842 157.762C192.51 157.84 192.156 157.879 191.783 157.879C191.076 157.879 190.552 157.692 190.21 157.318C189.869 156.94 189.698 156.352 189.698 155.554V150.455Z" fill="#1950A0"/>
<path d="M198.815 150.455H200.005L200.203 150.988C200.458 150.851 200.729 150.728 201.016 150.619C201.262 150.528 201.54 150.443 201.85 150.366C202.165 150.288 202.488 150.25 202.821 150.25C203.222 150.25 203.553 150.313 203.812 150.441C204.077 150.569 204.282 150.76 204.428 151.015C204.541 150.951 204.69 150.876 204.872 150.79C205.054 150.703 205.259 150.621 205.487 150.544C205.715 150.462 205.966 150.393 206.239 150.339C206.512 150.279 206.8 150.25 207.1 150.25C207.766 150.25 208.251 150.439 208.556 150.817C208.866 151.191 209.021 151.77 209.021 152.553V157.667H207.394V152.868C207.394 152.649 207.381 152.467 207.353 152.321C207.326 152.171 207.274 152.05 207.196 151.959C207.119 151.863 207.012 151.795 206.875 151.754C206.743 151.713 206.567 151.692 206.348 151.692C206.175 151.692 206.007 151.703 205.843 151.726C205.683 151.744 205.53 151.77 205.385 151.801C205.243 151.833 205.113 151.868 204.995 151.904C204.881 151.94 204.783 151.972 204.701 152C204.715 152.118 204.724 152.243 204.728 152.376C204.733 152.508 204.735 152.615 204.735 152.697V157.667H203.115V152.868C203.115 152.649 203.099 152.467 203.067 152.321C203.04 152.171 202.987 152.05 202.91 151.959C202.832 151.863 202.728 151.795 202.596 151.754C202.468 151.713 202.304 151.692 202.103 151.692C201.875 151.692 201.661 151.71 201.461 151.747C201.265 151.779 201.089 151.813 200.934 151.849C200.752 151.895 200.586 151.945 200.435 152V157.667H198.815V150.455Z" fill="#1950A0"/>
<path d="M211.392 153.982C211.392 153.23 211.49 152.613 211.686 152.13C211.882 151.646 212.141 151.266 212.465 150.988C212.789 150.71 213.158 150.519 213.572 150.414C213.987 150.304 214.413 150.25 214.851 150.25C215.402 150.25 215.858 150.325 216.218 150.475C216.583 150.626 216.872 150.838 217.086 151.111C217.3 151.38 217.451 151.703 217.537 152.082C217.624 152.46 217.667 152.877 217.667 153.333C217.667 153.547 217.658 153.768 217.64 153.996C217.626 154.224 217.606 154.458 217.578 154.7H213.06C213.064 155.023 213.099 155.297 213.162 155.52C213.231 155.739 213.34 155.919 213.49 156.06C213.645 156.197 213.848 156.297 214.099 156.361C214.354 156.42 214.671 156.45 215.049 156.45C215.368 156.45 215.667 156.443 215.945 156.429C216.223 156.411 216.466 156.391 216.676 156.368C216.922 156.345 217.145 156.315 217.346 156.279V157.414C217.113 157.5 216.861 157.578 216.587 157.646C216.355 157.705 216.084 157.758 215.774 157.803C215.464 157.854 215.133 157.879 214.782 157.879C214.245 157.879 213.766 157.81 213.347 157.673C212.928 157.541 212.572 157.323 212.28 157.017C211.993 156.707 211.772 156.304 211.617 155.807C211.467 155.311 211.392 154.702 211.392 153.982ZM216.17 153.483V153.223C216.17 152.95 216.152 152.713 216.115 152.512C216.084 152.307 216.015 152.139 215.91 152.007C215.806 151.874 215.657 151.776 215.466 151.713C215.275 151.649 215.019 151.617 214.7 151.617C214.359 151.617 214.078 151.658 213.86 151.74C213.645 151.817 213.477 151.936 213.354 152.095C213.235 152.25 213.153 152.444 213.108 152.676C213.067 152.909 213.046 153.178 213.046 153.483H216.17Z" fill="#1950A0"/>
<path d="M219.908 150.455H221.097L221.296 150.988C221.546 150.851 221.82 150.728 222.116 150.619C222.371 150.528 222.665 150.443 222.998 150.366C223.33 150.288 223.686 150.25 224.064 150.25C224.775 150.25 225.299 150.437 225.636 150.81C225.978 151.179 226.149 151.76 226.149 152.553V157.667H224.529V152.752C224.529 152.565 224.515 152.405 224.488 152.273C224.465 152.136 224.413 152.027 224.331 151.945C224.249 151.858 224.13 151.795 223.975 151.754C223.82 151.713 223.613 151.692 223.353 151.692C223.08 151.692 222.831 151.71 222.608 151.747C222.385 151.779 222.193 151.813 222.034 151.849C221.847 151.895 221.678 151.945 221.528 152V157.667H219.908V150.455Z" fill="#1950A0"/>
<path d="M229.518 151.801H228.451V150.455H229.518V148.93L231.138 148.568V150.455H232.956V151.801H231.138V155.677C231.138 155.846 231.149 155.985 231.172 156.094C231.199 156.204 231.245 156.293 231.309 156.361C231.377 156.425 231.47 156.47 231.589 156.498C231.712 156.52 231.869 156.532 232.061 156.532C232.238 156.532 232.398 156.53 232.539 156.525C232.685 156.516 232.808 156.507 232.908 156.498C233.027 156.489 233.132 156.477 233.223 156.464V157.544C233.063 157.607 232.892 157.664 232.71 157.715C232.55 157.756 232.364 157.792 232.149 157.824C231.935 157.86 231.701 157.879 231.445 157.879C231.09 157.879 230.789 157.844 230.543 157.776C230.301 157.708 230.103 157.605 229.948 157.468C229.798 157.327 229.688 157.152 229.62 156.942C229.552 156.728 229.518 156.479 229.518 156.197V151.801Z" fill="#1950A0"/>
<path d="M235.026 154.057C235.026 153.447 235.092 152.907 235.224 152.437C235.356 151.963 235.561 151.564 235.839 151.241C236.122 150.917 236.477 150.671 236.906 150.503C237.334 150.334 237.847 150.25 238.444 150.25C239.041 150.25 239.553 150.334 239.982 150.503C240.415 150.671 240.77 150.917 241.048 151.241C241.326 151.564 241.531 151.963 241.663 152.437C241.796 152.907 241.862 153.447 241.862 154.057C241.862 154.668 241.796 155.213 241.663 155.691C241.531 156.165 241.326 156.564 241.048 156.887C240.77 157.211 240.415 157.457 239.982 157.626C239.553 157.794 239.041 157.879 238.444 157.879C237.847 157.879 237.334 157.794 236.906 157.626C236.477 157.457 236.122 157.211 235.839 156.887C235.561 156.564 235.356 156.165 235.224 155.691C235.092 155.213 235.026 154.668 235.026 154.057ZM238.444 156.505C238.804 156.505 239.095 156.452 239.319 156.347C239.542 156.238 239.715 156.081 239.838 155.876C239.961 155.666 240.043 155.411 240.084 155.11C240.13 154.805 240.153 154.454 240.153 154.057C240.153 153.665 240.13 153.319 240.084 153.018C240.043 152.713 239.961 152.458 239.838 152.253C239.715 152.043 239.542 151.886 239.319 151.781C239.095 151.672 238.804 151.617 238.444 151.617C238.088 151.617 237.799 151.672 237.576 151.781C237.352 151.886 237.177 152.043 237.049 152.253C236.926 152.458 236.842 152.713 236.796 153.018C236.755 153.319 236.735 153.665 236.735 154.057C236.735 154.454 236.755 154.805 236.796 155.11C236.842 155.411 236.926 155.666 237.049 155.876C237.177 156.081 237.352 156.238 237.576 156.347C237.799 156.452 238.088 156.505 238.444 156.505Z" fill="#1950A0"/>
<path d="M243.897 156.279C244.098 156.325 244.321 156.366 244.567 156.402C244.777 156.434 245.023 156.461 245.305 156.484C245.593 156.507 245.907 156.518 246.249 156.518C246.623 156.518 246.919 156.505 247.137 156.477C247.356 156.45 247.52 156.404 247.63 156.34C247.744 156.272 247.817 156.181 247.848 156.067C247.88 155.953 247.896 155.81 247.896 155.636C247.896 155.545 247.889 155.463 247.876 155.39C247.867 155.313 247.839 155.244 247.794 155.185C247.753 155.121 247.689 155.069 247.602 155.028C247.52 154.982 247.409 154.948 247.267 154.925L245.757 154.645C245.41 154.586 245.119 154.506 244.882 154.406C244.645 154.306 244.453 154.173 244.307 154.009C244.166 153.841 244.064 153.636 244 153.394C243.941 153.148 243.911 152.85 243.911 152.499C243.911 151.742 244.162 151.179 244.663 150.81C245.169 150.437 245.889 150.25 246.823 150.25C247.151 150.25 247.452 150.27 247.725 150.311C248.003 150.348 248.245 150.391 248.45 150.441C248.687 150.496 248.903 150.557 249.099 150.626V151.788C248.881 151.751 248.653 151.719 248.416 151.692C248.211 151.669 247.981 151.646 247.725 151.624C247.475 151.601 247.22 151.59 246.96 151.59C246.664 151.59 246.417 151.603 246.221 151.631C246.026 151.653 245.871 151.694 245.757 151.754C245.643 151.813 245.563 151.89 245.517 151.986C245.472 152.077 245.449 152.193 245.449 152.335C245.449 152.444 245.458 152.542 245.476 152.629C245.495 152.715 245.533 152.793 245.593 152.861C245.652 152.929 245.734 152.989 245.839 153.039C245.943 153.089 246.085 153.13 246.262 153.162L247.828 153.456C248.133 153.515 248.391 153.592 248.6 153.688C248.815 153.784 248.988 153.914 249.12 154.078C249.252 154.242 249.348 154.451 249.407 154.707C249.466 154.957 249.496 155.267 249.496 155.636C249.496 155.987 249.459 156.302 249.387 156.58C249.318 156.858 249.177 157.092 248.963 157.284C248.748 157.475 248.445 157.621 248.054 157.721C247.662 157.826 247.144 157.879 246.502 157.879C246.146 157.879 245.811 157.854 245.497 157.803C245.182 157.758 244.907 157.705 244.67 157.646C244.392 157.578 244.134 157.5 243.897 157.414V156.279Z" fill="#1950A0"/>
<path d="M256.021 150.455H257.211L257.409 150.988C257.664 150.851 257.935 150.728 258.222 150.619C258.468 150.528 258.746 150.443 259.056 150.366C259.371 150.288 259.694 150.25 260.027 150.25C260.428 150.25 260.758 150.313 261.018 150.441C261.282 150.569 261.488 150.76 261.633 151.015C261.747 150.951 261.895 150.876 262.078 150.79C262.26 150.703 262.465 150.621 262.693 150.544C262.921 150.462 263.171 150.393 263.445 150.339C263.718 150.279 264.005 150.25 264.306 150.25C264.972 150.25 265.457 150.439 265.762 150.817C266.072 151.191 266.227 151.77 266.227 152.553V157.667H264.6V152.868C264.6 152.649 264.587 152.467 264.559 152.321C264.532 152.171 264.479 152.05 264.402 151.959C264.324 151.863 264.217 151.795 264.081 151.754C263.948 151.713 263.773 151.692 263.554 151.692C263.381 151.692 263.212 151.703 263.048 151.726C262.889 151.744 262.736 151.77 262.59 151.801C262.449 151.833 262.319 151.868 262.201 151.904C262.087 151.94 261.989 151.972 261.907 152C261.921 152.118 261.93 152.243 261.934 152.376C261.939 152.508 261.941 152.615 261.941 152.697V157.667H260.321V152.868C260.321 152.649 260.305 152.467 260.273 152.321C260.246 152.171 260.193 152.05 260.116 151.959C260.038 151.863 259.934 151.795 259.801 151.754C259.674 151.713 259.51 151.692 259.309 151.692C259.081 151.692 258.867 151.71 258.667 151.747C258.471 151.779 258.295 151.813 258.14 151.849C257.958 151.895 257.792 151.945 257.641 152V157.667H256.021V150.455Z" fill="#1950A0"/>
<path d="M268.598 153.982C268.598 153.23 268.696 152.613 268.892 152.13C269.088 151.646 269.347 151.266 269.671 150.988C269.994 150.71 270.364 150.519 270.778 150.414C271.193 150.304 271.619 150.25 272.057 150.25C272.608 150.25 273.064 150.325 273.424 150.475C273.788 150.626 274.078 150.838 274.292 151.111C274.506 151.38 274.657 151.703 274.743 152.082C274.83 152.46 274.873 152.877 274.873 153.333C274.873 153.547 274.864 153.768 274.846 153.996C274.832 154.224 274.812 154.458 274.784 154.7H270.266C270.27 155.023 270.304 155.297 270.368 155.52C270.437 155.739 270.546 155.919 270.696 156.06C270.851 156.197 271.054 156.297 271.305 156.361C271.56 156.42 271.877 156.45 272.255 156.45C272.574 156.45 272.872 156.443 273.15 156.429C273.428 156.411 273.672 156.391 273.882 156.368C274.128 156.345 274.351 156.315 274.552 156.279V157.414C274.319 157.5 274.066 157.578 273.793 157.646C273.561 157.705 273.289 157.758 272.979 157.803C272.67 157.854 272.339 157.879 271.988 157.879C271.451 157.879 270.972 157.81 270.553 157.673C270.133 157.541 269.778 157.323 269.486 157.017C269.199 156.707 268.978 156.304 268.823 155.807C268.673 155.311 268.598 154.702 268.598 153.982ZM273.376 153.483V153.223C273.376 152.95 273.358 152.713 273.321 152.512C273.289 152.307 273.221 152.139 273.116 152.007C273.011 151.874 272.863 151.776 272.672 151.713C272.48 151.649 272.225 151.617 271.906 151.617C271.564 151.617 271.284 151.658 271.065 151.74C270.851 151.817 270.683 151.936 270.56 152.095C270.441 152.25 270.359 152.444 270.313 152.676C270.272 152.909 270.252 153.178 270.252 153.483H273.376Z" fill="#1950A0"/>
<path d="M277.62 151.801H276.553V150.455H277.62V148.93L279.24 148.568V150.455H281.058V151.801H279.24V155.677C279.24 155.846 279.251 155.985 279.274 156.094C279.301 156.204 279.347 156.293 279.411 156.361C279.479 156.425 279.572 156.47 279.691 156.498C279.814 156.52 279.971 156.532 280.163 156.532C280.34 156.532 280.5 156.53 280.641 156.525C280.787 156.516 280.91 156.507 281.01 156.498C281.129 156.489 281.233 156.477 281.325 156.464V157.544C281.165 157.607 280.994 157.664 280.812 157.715C280.652 157.756 280.466 157.792 280.251 157.824C280.037 157.86 279.802 157.879 279.547 157.879C279.192 157.879 278.891 157.844 278.645 157.776C278.403 157.708 278.205 157.605 278.05 157.468C277.9 157.327 277.79 157.152 277.722 156.942C277.654 156.728 277.62 156.479 277.62 156.197V151.801Z" fill="#1950A0"/>
<path d="M283.128 153.982C283.128 153.23 283.226 152.613 283.422 152.13C283.618 151.646 283.877 151.266 284.201 150.988C284.525 150.71 284.894 150.519 285.308 150.414C285.723 150.304 286.149 150.25 286.587 150.25C287.138 150.25 287.594 150.325 287.954 150.475C288.319 150.626 288.608 150.838 288.822 151.111C289.036 151.38 289.187 151.703 289.273 152.082C289.36 152.46 289.403 152.877 289.403 153.333C289.403 153.547 289.394 153.768 289.376 153.996C289.362 154.224 289.342 154.458 289.314 154.7H284.796C284.8 155.023 284.834 155.297 284.898 155.52C284.967 155.739 285.076 155.919 285.226 156.06C285.381 156.197 285.584 156.297 285.835 156.361C286.09 156.42 286.407 156.45 286.785 156.45C287.104 156.45 287.402 156.443 287.68 156.429C287.958 156.411 288.202 156.391 288.412 156.368C288.658 156.345 288.881 156.315 289.082 156.279V157.414C288.849 157.5 288.596 157.578 288.323 157.646C288.091 157.705 287.819 157.758 287.51 157.803C287.2 157.854 286.869 157.879 286.518 157.879C285.981 157.879 285.502 157.81 285.083 157.673C284.664 157.541 284.308 157.323 284.016 157.017C283.729 156.707 283.508 156.304 283.353 155.807C283.203 155.311 283.128 154.702 283.128 153.982ZM287.906 153.483V153.223C287.906 152.95 287.888 152.713 287.851 152.512C287.819 152.307 287.751 152.139 287.646 152.007C287.541 151.874 287.393 151.776 287.202 151.713C287.011 151.649 286.755 151.617 286.436 151.617C286.095 151.617 285.814 151.658 285.596 151.74C285.381 151.817 285.213 151.936 285.09 152.095C284.971 152.25 284.889 152.444 284.844 152.676C284.803 152.909 284.782 153.178 284.782 153.483H287.906Z" fill="#1950A0"/>
<path d="M291.152 154.057C291.152 153.447 291.218 152.907 291.35 152.437C291.482 151.963 291.687 151.564 291.965 151.241C292.248 150.917 292.603 150.671 293.031 150.503C293.46 150.334 293.973 150.25 294.57 150.25C295.167 150.25 295.679 150.334 296.108 150.503C296.541 150.671 296.896 150.917 297.174 151.241C297.452 151.564 297.657 151.963 297.789 152.437C297.921 152.907 297.987 153.447 297.987 154.057C297.987 154.668 297.921 155.213 297.789 155.691C297.657 156.165 297.452 156.564 297.174 156.887C296.896 157.211 296.541 157.457 296.108 157.626C295.679 157.794 295.167 157.879 294.57 157.879C293.973 157.879 293.46 157.794 293.031 157.626C292.603 157.457 292.248 157.211 291.965 156.887C291.687 156.564 291.482 156.165 291.35 155.691C291.218 155.213 291.152 154.668 291.152 154.057ZM294.57 156.505C294.93 156.505 295.221 156.452 295.445 156.347C295.668 156.238 295.841 156.081 295.964 155.876C296.087 155.666 296.169 155.411 296.21 155.11C296.256 154.805 296.279 154.454 296.279 154.057C296.279 153.665 296.256 153.319 296.21 153.018C296.169 152.713 296.087 152.458 295.964 152.253C295.841 152.043 295.668 151.886 295.445 151.781C295.221 151.672 294.93 151.617 294.57 151.617C294.214 151.617 293.925 151.672 293.701 151.781C293.478 151.886 293.303 152.043 293.175 152.253C293.052 152.458 292.968 152.713 292.922 153.018C292.881 153.319 292.861 153.665 292.861 154.057C292.861 154.454 292.881 154.805 292.922 155.11C292.968 155.411 293.052 155.666 293.175 155.876C293.303 156.081 293.478 156.238 293.701 156.347C293.925 156.452 294.214 156.505 294.57 156.505Z" fill="#1950A0"/>
<path d="M300.365 150.455H301.766L301.862 151.241C302.217 151.008 302.616 150.817 303.058 150.667C303.5 150.516 303.997 150.427 304.548 150.4L304.535 152.082C303.965 152.091 303.471 152.12 303.051 152.171C302.637 152.216 302.281 152.298 301.985 152.417V157.667H300.365V150.455Z" fill="#1950A0"/>
<path d="M306.051 154.057C306.051 153.447 306.117 152.907 306.249 152.437C306.381 151.963 306.586 151.564 306.864 151.241C307.147 150.917 307.502 150.671 307.931 150.503C308.359 150.334 308.872 150.25 309.469 150.25C310.066 150.25 310.578 150.334 311.007 150.503C311.44 150.671 311.795 150.917 312.073 151.241C312.351 151.564 312.556 151.963 312.688 152.437C312.821 152.907 312.887 153.447 312.887 154.057C312.887 154.668 312.821 155.213 312.688 155.691C312.556 156.165 312.351 156.564 312.073 156.887C311.795 157.211 311.44 157.457 311.007 157.626C310.578 157.794 310.066 157.879 309.469 157.879C308.872 157.879 308.359 157.794 307.931 157.626C307.502 157.457 307.147 157.211 306.864 156.887C306.586 156.564 306.381 156.165 306.249 155.691C306.117 155.213 306.051 154.668 306.051 154.057ZM309.469 156.505C309.829 156.505 310.12 156.452 310.344 156.347C310.567 156.238 310.74 156.081 310.863 155.876C310.986 155.666 311.068 155.411 311.109 155.11C311.155 154.805 311.178 154.454 311.178 154.057C311.178 153.665 311.155 153.319 311.109 153.018C311.068 152.713 310.986 152.458 310.863 152.253C310.74 152.043 310.567 151.886 310.344 151.781C310.12 151.672 309.829 151.617 309.469 151.617C309.113 151.617 308.824 151.672 308.601 151.781C308.377 151.886 308.202 152.043 308.074 152.253C307.951 152.458 307.867 152.713 307.821 153.018C307.78 153.319 307.76 153.665 307.76 154.057C307.76 154.454 307.78 154.805 307.821 155.11C307.867 155.411 307.951 155.666 308.074 155.876C308.202 156.081 308.377 156.238 308.601 156.347C308.824 156.452 309.113 156.505 309.469 156.505Z" fill="#1950A0"/>
<path d="M315.264 147.044H316.884V157.667H315.264V147.044Z" fill="#1950A0"/>
<path d="M319.268 154.057C319.268 153.447 319.334 152.907 319.467 152.437C319.599 151.963 319.804 151.564 320.082 151.241C320.364 150.917 320.72 150.671 321.148 150.503C321.577 150.334 322.089 150.25 322.686 150.25C323.283 150.25 323.796 150.334 324.224 150.503C324.657 150.671 325.013 150.917 325.291 151.241C325.569 151.564 325.774 151.963 325.906 152.437C326.038 152.907 326.104 153.447 326.104 154.057C326.104 154.668 326.038 155.213 325.906 155.691C325.774 156.165 325.569 156.564 325.291 156.887C325.013 157.211 324.657 157.457 324.224 157.626C323.796 157.794 323.283 157.879 322.686 157.879C322.089 157.879 321.577 157.794 321.148 157.626C320.72 157.457 320.364 157.211 320.082 156.887C319.804 156.564 319.599 156.165 319.467 155.691C319.334 155.213 319.268 154.668 319.268 154.057ZM322.686 156.505C323.046 156.505 323.338 156.452 323.561 156.347C323.785 156.238 323.958 156.081 324.081 155.876C324.204 155.666 324.286 155.411 324.327 155.11C324.373 154.805 324.395 154.454 324.395 154.057C324.395 153.665 324.373 153.319 324.327 153.018C324.286 152.713 324.204 152.458 324.081 152.253C323.958 152.043 323.785 151.886 323.561 151.781C323.338 151.672 323.046 151.617 322.686 151.617C322.331 151.617 322.041 151.672 321.818 151.781C321.595 151.886 321.419 152.043 321.292 152.253C321.169 152.458 321.084 152.713 321.039 153.018C320.998 153.319 320.977 153.665 320.977 154.057C320.977 154.454 320.998 154.805 321.039 155.11C321.084 155.411 321.169 155.666 321.292 155.876C321.419 156.081 321.595 156.238 321.818 156.347C322.041 156.452 322.331 156.505 322.686 156.505ZM320.738 148.93L323.527 146.312C323.586 146.344 323.652 146.387 323.725 146.442C323.789 146.492 323.86 146.556 323.937 146.633C324.019 146.711 324.11 146.809 324.211 146.927C324.297 147.032 324.363 147.128 324.409 147.215C324.455 147.301 324.477 147.383 324.477 147.461C324.477 147.575 324.425 147.691 324.32 147.809C324.22 147.923 324.054 148.064 323.821 148.233C323.757 148.279 323.675 148.336 323.575 148.404C323.475 148.472 323.363 148.548 323.24 148.63C323.117 148.712 322.987 148.798 322.85 148.889C322.714 148.976 322.579 149.062 322.447 149.149C322.133 149.354 321.798 149.571 321.442 149.798L320.738 148.93Z" fill="#1950A0"/>
<path d="M329.049 159.471C329.213 159.508 329.402 159.537 329.616 159.56C329.799 159.583 330.017 159.601 330.273 159.615C330.532 159.633 330.82 159.642 331.134 159.642C331.517 159.642 331.827 159.626 332.064 159.594C332.305 159.567 332.492 159.515 332.624 159.437C332.761 159.364 332.854 159.262 332.904 159.13C332.955 159.002 332.98 158.84 332.98 158.644V157.386C332.775 157.473 332.558 157.55 332.33 157.619C332.13 157.678 331.902 157.73 331.647 157.776C331.396 157.826 331.132 157.851 330.854 157.851C330.375 157.851 329.963 157.787 329.616 157.66C329.275 157.528 328.992 157.311 328.769 157.01C328.55 156.71 328.388 156.315 328.283 155.828C328.179 155.34 328.126 154.741 328.126 154.03C328.126 153.447 328.183 152.925 328.297 152.465C328.411 152 328.577 151.608 328.796 151.289C329.019 150.965 329.293 150.719 329.616 150.55C329.945 150.377 330.32 150.291 330.744 150.291C331.104 150.291 331.432 150.327 331.729 150.4C332.029 150.473 332.289 150.553 332.508 150.639C332.759 150.744 332.987 150.86 333.192 150.988L333.376 150.455H334.607V158.747C334.607 159.18 334.543 159.544 334.415 159.84C334.292 160.141 334.103 160.383 333.848 160.565C333.597 160.752 333.283 160.884 332.904 160.962C332.526 161.044 332.086 161.085 331.585 161.085C331.266 161.085 330.956 161.062 330.655 161.016C330.355 160.975 330.084 160.927 329.842 160.873C329.559 160.813 329.295 160.743 329.049 160.661V159.471ZM331.428 156.395C331.619 156.395 331.806 156.388 331.988 156.375C332.175 156.356 332.342 156.336 332.487 156.313C332.661 156.29 332.825 156.261 332.98 156.224V152.095C332.802 152.032 332.611 151.975 332.405 151.924C332.232 151.879 332.034 151.838 331.811 151.801C331.587 151.765 331.357 151.747 331.12 151.747C330.879 151.747 330.676 151.785 330.512 151.863C330.348 151.94 330.216 152.07 330.115 152.253C330.015 152.435 329.942 152.676 329.897 152.977C329.856 153.278 329.835 153.652 329.835 154.098C329.835 154.508 329.849 154.859 329.876 155.151C329.904 155.443 329.97 155.682 330.074 155.869C330.179 156.051 330.339 156.186 330.553 156.272C330.767 156.354 331.059 156.395 331.428 156.395Z" fill="#1950A0"/>
<path d="M338.413 149.231C338.226 149.231 338.071 149.217 337.948 149.19C337.829 149.163 337.731 149.115 337.654 149.047C337.581 148.978 337.529 148.885 337.497 148.766C337.469 148.648 337.456 148.495 337.456 148.308C337.456 148.121 337.469 147.969 337.497 147.85C337.529 147.727 337.581 147.629 337.654 147.556C337.731 147.483 337.829 147.433 337.948 147.406C338.071 147.379 338.226 147.365 338.413 147.365C338.6 147.365 338.752 147.379 338.871 147.406C338.994 147.433 339.092 147.483 339.165 147.556C339.238 147.629 339.288 147.727 339.315 147.85C339.342 147.969 339.356 148.121 339.356 148.308C339.356 148.495 339.342 148.648 339.315 148.766C339.288 148.885 339.238 148.978 339.165 149.047C339.092 149.115 338.994 149.163 338.871 149.19C338.752 149.217 338.6 149.231 338.413 149.231ZM337.599 150.455H339.226V157.667H337.599V150.455Z" fill="#1950A0"/>
<path d="M341.713 154.057C341.713 153.374 341.795 152.793 341.959 152.314C342.128 151.836 342.353 151.448 342.636 151.152C342.923 150.851 343.258 150.632 343.641 150.496C344.023 150.359 344.431 150.291 344.864 150.291C345.197 150.291 345.495 150.313 345.76 150.359C346.024 150.4 346.25 150.446 346.437 150.496C346.655 150.555 346.844 150.621 347.004 150.694V151.815C346.849 151.801 346.68 151.785 346.498 151.767C346.343 151.758 346.168 151.749 345.972 151.74C345.776 151.726 345.571 151.719 345.356 151.719C345.015 151.719 344.721 151.749 344.475 151.808C344.229 151.868 344.028 151.981 343.873 152.15C343.718 152.314 343.604 152.549 343.531 152.854C343.458 153.155 343.422 153.551 343.422 154.044C343.422 154.545 343.463 154.951 343.545 155.26C343.632 155.57 343.761 155.812 343.935 155.985C344.108 156.154 344.324 156.268 344.584 156.327C344.844 156.382 345.151 156.409 345.507 156.409C345.73 156.409 345.935 156.404 346.122 156.395C346.313 156.382 346.48 156.366 346.621 156.347C346.785 156.329 346.933 156.306 347.065 156.279V157.414C346.92 157.496 346.742 157.569 346.532 157.632C346.354 157.687 346.131 157.737 345.862 157.783C345.593 157.828 345.279 157.851 344.919 157.851C344.477 157.851 344.06 157.79 343.668 157.667C343.281 157.548 342.941 157.343 342.649 157.051C342.362 156.76 342.134 156.372 341.966 155.889C341.797 155.402 341.713 154.791 341.713 154.057Z" fill="#1950A0"/>
<path d="M348.916 154.057C348.916 153.447 348.982 152.907 349.115 152.437C349.247 151.963 349.452 151.564 349.73 151.241C350.012 150.917 350.368 150.671 350.796 150.503C351.225 150.334 351.737 150.25 352.334 150.25C352.931 150.25 353.444 150.334 353.872 150.503C354.305 150.671 354.661 150.917 354.939 151.241C355.217 151.564 355.422 151.963 355.554 152.437C355.686 152.907 355.752 153.447 355.752 154.057C355.752 154.668 355.686 155.213 355.554 155.691C355.422 156.165 355.217 156.564 354.939 156.887C354.661 157.211 354.305 157.457 353.872 157.626C353.444 157.794 352.931 157.879 352.334 157.879C351.737 157.879 351.225 157.794 350.796 157.626C350.368 157.457 350.012 157.211 349.73 156.887C349.452 156.564 349.247 156.165 349.115 155.691C348.982 155.213 348.916 154.668 348.916 154.057ZM352.334 156.505C352.694 156.505 352.986 156.452 353.209 156.347C353.433 156.238 353.606 156.081 353.729 155.876C353.852 155.666 353.934 155.411 353.975 155.11C354.021 154.805 354.043 154.454 354.043 154.057C354.043 153.665 354.021 153.319 353.975 153.018C353.934 152.713 353.852 152.458 353.729 152.253C353.606 152.043 353.433 151.886 353.209 151.781C352.986 151.672 352.694 151.617 352.334 151.617C351.979 151.617 351.69 151.672 351.466 151.781C351.243 151.886 351.067 152.043 350.94 152.253C350.817 152.458 350.732 152.713 350.687 153.018C350.646 153.319 350.625 153.665 350.625 154.057C350.625 154.454 350.646 154.805 350.687 155.11C350.732 155.411 350.817 155.666 350.94 155.876C351.067 156.081 351.243 156.238 351.466 156.347C351.69 156.452 351.979 156.505 352.334 156.505Z" fill="#1950A0"/>
<path d="M357.788 156.279C357.988 156.325 358.212 156.366 358.458 156.402C358.667 156.434 358.914 156.461 359.196 156.484C359.483 156.507 359.798 156.518 360.139 156.518C360.513 156.518 360.809 156.505 361.028 156.477C361.247 156.45 361.411 156.404 361.52 156.34C361.634 156.272 361.707 156.181 361.739 156.067C361.771 155.953 361.787 155.81 361.787 155.636C361.787 155.545 361.78 155.463 361.766 155.39C361.757 155.313 361.73 155.244 361.684 155.185C361.643 155.121 361.58 155.069 361.493 155.028C361.411 154.982 361.299 154.948 361.158 154.925L359.647 154.645C359.301 154.586 359.009 154.506 358.772 154.406C358.535 154.306 358.344 154.173 358.198 154.009C358.057 153.841 357.954 153.636 357.89 153.394C357.831 153.148 357.802 152.85 357.802 152.499C357.802 151.742 358.052 151.179 358.554 150.81C359.059 150.437 359.779 150.25 360.714 150.25C361.042 150.25 361.343 150.27 361.616 150.311C361.894 150.348 362.136 150.391 362.341 150.441C362.578 150.496 362.794 150.557 362.99 150.626V151.788C362.771 151.751 362.543 151.719 362.306 151.692C362.101 151.669 361.871 151.646 361.616 151.624C361.365 151.601 361.11 151.59 360.85 151.59C360.554 151.59 360.308 151.603 360.112 151.631C359.916 151.653 359.761 151.694 359.647 151.754C359.533 151.813 359.454 151.89 359.408 151.986C359.362 152.077 359.34 152.193 359.34 152.335C359.34 152.444 359.349 152.542 359.367 152.629C359.385 152.715 359.424 152.793 359.483 152.861C359.542 152.929 359.624 152.989 359.729 153.039C359.834 153.089 359.975 153.13 360.153 153.162L361.719 153.456C362.024 153.515 362.281 153.592 362.491 153.688C362.705 153.784 362.878 153.914 363.011 154.078C363.143 154.242 363.238 154.451 363.298 154.707C363.357 154.957 363.387 155.267 363.387 155.636C363.387 155.987 363.35 156.302 363.277 156.58C363.209 156.858 363.068 157.092 362.853 157.284C362.639 157.475 362.336 157.621 361.944 157.721C361.552 157.826 361.035 157.879 360.392 157.879C360.037 157.879 359.702 157.854 359.388 157.803C359.073 157.758 358.797 157.705 358.56 157.646C358.282 157.578 358.025 157.5 357.788 157.414V156.279Z" fill="#1950A0"/>
<path d="M82.2073 67.3163C82.2073 70.8911 79.3093 73.7891 75.7345 73.7891C72.1597 73.7891 69.2617 70.8911 69.2617 67.3163C69.2617 63.7415 72.1597 60.8435 75.7345 60.8435C79.3093 60.8435 82.2073 63.7415 82.2073 67.3163Z" fill="#051020"/>
<path d="M99.2073 40.602C99.2073 46.1268 94.7286 50.6054 89.2039 50.6054C83.6792 50.6054 79.2005 46.1268 79.2005 40.602C79.2005 35.0773 83.6792 30.5986 89.2039 30.5986C94.7286 30.5986 99.2073 35.0773 99.2073 40.602Z" fill="#0F3060"/>
<path d="M138.044 18.2415C138.044 28.316 129.877 36.483 119.803 36.483C109.728 36.483 101.561 28.316 101.561 18.2415C101.561 8.167 109.728 0 119.803 0C129.877 0 138.044 8.167 138.044 18.2415Z" fill="#4773B3"/>
<path d="M176.881 18.83C176.881 25.9796 171.085 31.7756 163.935 31.7756C156.785 31.7756 150.99 25.9796 150.99 18.83C150.99 11.6803 156.785 5.8844 163.935 5.8844C171.085 5.8844 176.881 11.6803 176.881 18.83Z" fill="#8BA7CF"/>
<path d="M212.187 31.1871C212.187 36.7118 207.708 41.1905 202.184 41.1905C196.659 41.1905 192.18 36.7118 192.18 31.1871C192.18 25.6624 196.659 21.1837 202.184 21.1837C207.708 21.1837 212.187 25.6624 212.187 31.1871Z" fill="#D1DCEC"/>
<path d="M234.547 47.0748C234.547 50.3246 231.913 52.9591 228.663 52.9591C225.413 52.9591 222.779 50.3246 222.779 47.0748C222.779 43.8249 225.413 41.1904 228.663 41.1904C231.913 41.1904 234.547 43.8249 234.547 47.0748Z" fill="#E8EEF6"/>
</svg>
