<svg width="156" height="50" viewBox="0 0 156 50" fill="none" xmlns="http://www.w3.org/2000/svg">
<path d="M10.0985 0H39.356V10.0943H30.2012V49.9999H19.2532V9.99998H10.0985V0Z" fill="#211915"/>
<path d="M13.4961 40.2827L14.1567 42.8299L17.0825 43.1129L14.4399 44.9997L15.2893 47.7355L12.3635 45.943L9.43782 47.4525L10.9478 44.7167L8.68274 42.6412L12.0804 42.7356L13.4961 40.2827Z" fill="#211915"/>
<path d="M38.3177 36.415L47.6613 49.9999H60.9687L50.1151 34.5283C50.1151 34.5283 46.6231 36.2264 38.3177 36.415Z" fill="#211915"/>
<path d="M4.81304 30.5662L5.28493 33.0189L8.2107 33.3019L5.56804 34.8114L5.94554 37.4529L3.58606 35.7548L0.47158 37.1699L2.26477 34.6227L0.188477 32.7359L3.30295 32.9246L4.81304 30.5662Z" fill="#211915"/>
<path d="M4.05827 20.1887L4.62456 22.3585L7.07844 22.4529L4.81327 23.9623L5.19085 25.9435L3.11448 24.6227L0.283103 25.7547L1.88758 23.6793L0 22.0755L2.83138 22.2642L4.05827 20.1887Z" fill="#211915"/>
<path d="M9.53197 12.3584L9.90947 14.0565H12.1745L10.2871 15.283L10.4758 16.9811L8.77697 15.849L6.22869 16.7924L7.64438 15.0943L5.8512 13.8679L8.30507 13.9622L9.53197 12.3584Z" fill="#211915"/>
<path d="M38.3177 35.1886H31.2393V25.3773H39.2615C39.2615 25.3773 48.0387 25.1887 47.9443 17.4528C47.8499 9.71697 40.2053 9.99998 40.2053 9.99998V0C40.2053 0 60.4967 0.0943084 59.4585 18.5849C58.6091 35.849 38.3177 35.1886 38.3177 35.1886Z" fill="#211915"/>
<path d="M126.562 36.1319C126.09 36.1319 125.618 36.1319 125.051 36.1319C125.051 35.9431 125.051 35.8488 125.051 35.6601C125.051 34.7168 125.051 33.7733 125.051 32.7357C125.051 31.9809 124.391 31.6036 123.731 31.8866C123.447 31.9809 123.258 32.2639 123.164 32.5469C123.069 32.7357 123.069 33.0187 123.069 33.2073C123.069 33.962 123.069 34.8111 123.069 35.5658C123.069 35.7544 123.069 35.8488 123.069 36.0375C122.598 36.0375 122.126 36.0375 121.56 36.0375C121.56 35.8488 121.56 35.7544 121.56 35.5658C121.56 34.7168 121.56 33.962 121.56 33.113C121.56 32.9243 121.56 32.7357 121.465 32.5469C121.371 32.0752 120.993 31.7922 120.521 31.7922C120.05 31.7922 119.672 32.0752 119.578 32.6413C119.578 32.83 119.578 33.0187 119.578 33.2073C119.578 33.962 119.578 34.8111 119.578 35.5658C119.578 35.7544 119.578 35.8488 119.578 36.0375C119.012 36.0375 118.539 36.0375 118.068 36.0375C118.068 34.245 118.068 32.3582 118.068 30.5658C118.539 30.5658 119.012 30.5658 119.578 30.5658C119.578 30.7545 119.578 31.0376 119.672 31.3206C120.143 30.7545 120.616 30.4714 121.276 30.4714C121.937 30.4714 122.503 30.7545 122.881 31.3206C122.975 31.2262 123.069 31.1319 123.164 31.1319C123.825 30.4714 124.58 30.3771 125.429 30.5658C126.184 30.7545 126.656 31.4149 126.656 32.2639C126.562 33.4903 126.562 34.8111 126.562 36.1319Z" fill="#211915"/>
<path d="M78.2403 21.4149C78.8058 22.264 79.3722 23.0187 79.9385 23.9621C79.2782 23.9621 78.7118 23.9621 78.1454 23.9621C77.6739 23.2073 77.1075 22.4527 76.6351 21.6979C76.1636 21.6979 75.786 21.6979 75.3144 21.6979C75.3144 22.4527 75.3144 23.2073 75.3144 23.9621C74.7479 23.9621 74.276 23.9621 73.8041 23.9621C73.7097 23.679 73.7097 17.4527 73.8041 16.7922C73.8985 16.7922 73.9929 16.7922 74.0873 16.7922C75.1256 16.7922 76.2584 16.7922 77.2963 16.7922C77.5791 16.7922 77.8627 16.7922 78.0515 16.8866C79.3722 17.264 79.8446 18.3017 79.7498 19.5281C79.6558 20.3771 79.1834 20.9432 78.4291 21.3206C78.4291 21.3206 78.3342 21.3206 78.2403 21.4149C78.3342 21.4149 78.3342 21.4149 78.2403 21.4149ZM75.3144 20.2828C75.9748 20.2828 76.6351 20.2828 77.2963 20.2828C77.8627 20.2828 78.2403 19.8111 78.2403 19.2451C78.2403 18.679 77.8627 18.2073 77.2963 18.2073C76.6351 18.113 75.9748 18.2073 75.3144 18.2073C75.3144 18.8677 75.3144 19.5281 75.3144 20.2828Z" fill="#211915"/>
<path d="M87.9608 45.5661C88.2436 46.0378 88.5272 46.4151 88.81 46.8869C89.0936 47.2642 89.3763 47.7359 89.66 48.1132C88.9988 48.1132 88.4324 48.1132 87.866 48.1132C87.3945 47.3585 86.8281 46.6039 86.3565 45.8491C85.8841 45.8491 85.5065 45.8491 85.035 45.8491C85.035 46.6039 85.035 47.3585 85.035 48.1132C84.5634 48.1132 84.091 48.1132 83.5246 48.1132C83.4307 47.8302 83.3358 41.6039 83.5246 40.9434C83.6195 40.9434 83.7134 40.8491 83.8083 40.8491C84.941 40.8491 86.1677 40.8491 87.3005 40.8491C87.5832 40.8491 87.866 40.9434 88.1496 41.0378C89.1876 41.4152 89.66 42.3585 89.5651 43.4906C89.4712 44.3396 88.9988 45.0001 88.2436 45.3774C88.0548 45.4718 88.0548 45.5661 87.9608 45.5661ZM84.941 44.434C85.6014 44.434 86.2617 44.434 86.9229 44.434C87.0169 44.434 87.1117 44.434 87.2057 44.3396C87.6781 44.151 87.9608 43.7736 87.866 43.302C87.866 42.8302 87.5833 42.3585 87.1117 42.3585C86.4505 42.2642 85.6953 42.3585 85.035 42.3585C85.035 42.3585 85.035 42.3585 84.941 42.4529C84.941 43.0189 84.941 43.6793 84.941 44.434Z" fill="#211915"/>
<path d="M103.628 7.26403C103.628 6.32058 103.628 5.47153 103.628 4.62248C104.1 4.52817 104.571 4.62248 105.138 4.62248C105.138 7.16963 105.138 9.62247 105.138 12.1697C104.666 12.1697 104.194 12.1697 103.722 12.1697C103.722 11.981 103.722 11.698 103.628 11.415C103.533 11.5093 103.439 11.5093 103.439 11.6037C102.495 12.7357 100.796 12.3583 100.041 11.415C99.0979 10.2829 99.1918 8.3961 100.041 7.35834C100.796 6.41498 102.495 6.22627 103.344 7.07532C103.439 7.07532 103.533 7.16963 103.628 7.26403ZM103.722 9.33946C103.628 9.05644 103.628 8.77342 103.439 8.49041C103.25 8.01877 102.778 7.73575 102.306 7.73575C101.74 7.73575 101.363 8.01877 101.08 8.49041C100.702 9.15084 100.796 9.71687 101.174 10.3772C101.646 11.132 102.684 11.2263 103.25 10.5659C103.533 10.1885 103.628 9.81118 103.722 9.33946Z" fill="#211915"/>
<path d="M100.23 18.3961C100.702 18.3961 101.174 18.3961 101.645 18.3961C101.645 18.5847 101.646 18.8678 101.74 19.1508C101.834 19.0565 101.929 19.0565 101.929 18.9622C102.873 17.83 104.666 18.2074 105.515 19.3395C106.27 20.3772 106.27 22.0753 105.515 23.1131C104.76 24.2452 102.967 24.4338 102.118 23.5847C102.023 23.4904 101.929 23.4904 101.834 23.3017C101.834 24.1508 101.834 24.9055 101.834 25.6602C101.269 25.6602 100.796 25.6602 100.325 25.6602C100.23 23.2074 100.23 20.8489 100.23 18.3961ZM104.477 21.3206C104.477 21.1319 104.477 21.0376 104.477 20.8489C104.382 20.1885 103.911 19.7168 103.251 19.6225C102.589 19.5282 102.023 19.9055 101.834 20.5659C101.74 20.8489 101.74 21.1319 101.74 21.5093C101.834 22.264 102.307 22.83 102.967 22.83C103.628 22.9244 104.194 22.4527 104.382 21.7923C104.477 21.6036 104.477 21.4149 104.477 21.3206Z" fill="#211915"/>
<path d="M73.6152 12.0754C73.6152 9.62256 73.6152 7.26403 73.6152 4.90559C73.7096 4.90559 73.7095 4.81128 73.8039 4.81128C74.9365 4.81128 75.9747 4.81128 77.1075 4.81128C78.2402 4.90559 79.0894 5.66033 79.2782 6.698C79.5609 8.20748 78.9006 9.33955 77.3902 9.71687C76.9187 9.81127 76.4463 9.81127 75.8808 9.81127C75.5971 9.81127 75.4083 9.81127 75.1256 9.81127C75.1256 10.5659 75.1256 11.3207 75.1256 11.981C74.6534 12.0754 74.1815 12.0754 73.6152 12.0754ZM75.2195 8.4905C75.8807 8.4905 76.4463 8.58481 77.0126 8.3961C77.4851 8.30179 77.7678 7.83007 77.8626 7.35843C77.8626 6.7924 77.6739 6.41498 77.1075 6.22636C76.5411 6.03766 75.8807 6.13197 75.2195 6.13197C75.2195 6.98102 75.2195 7.73576 75.2195 8.4905Z" fill="#211915"/>
<path d="M136.283 18.3018C137.793 18.3018 138.926 19.2451 139.208 20.6603C139.492 22.1697 138.454 23.7735 136.944 24.0565C135.622 24.2451 134.584 23.9621 133.735 22.9244C132.507 21.2263 133.451 18.8678 135.528 18.4905C135.811 18.3961 136 18.3018 136.283 18.3018ZM134.773 21.2263C134.773 22.1697 135.433 22.83 136.283 22.83C137.132 22.83 137.793 22.1697 137.793 21.2263C137.793 20.2829 137.132 19.6225 136.283 19.6225C135.339 19.6225 134.773 20.2829 134.773 21.2263Z" fill="#211915"/>
<path d="M143.173 33.396C143.078 31.8866 144.4 30.4714 146.193 30.4714C148.175 30.4714 149.213 31.9809 149.213 33.396C149.213 34.8111 147.986 36.3206 146.193 36.3206C144.4 36.3206 143.078 34.9054 143.173 33.396ZM144.682 33.396C144.682 34.3394 145.344 34.9998 146.193 34.9998C147.042 34.9998 147.703 34.3394 147.703 33.4903C147.703 32.5469 147.042 31.8866 146.193 31.8866C145.344 31.7922 144.682 32.4526 144.682 33.396Z" fill="#211915"/>
<path d="M112.405 33.3962C112.5 35.0943 110.895 36.5094 108.913 36.2263C107.592 36.0377 106.742 35.283 106.459 34.0565C106.082 32.2641 107.214 30.849 108.724 30.566C109.385 30.3773 109.951 30.4716 110.612 30.6603C111.65 31.132 112.405 32.1698 112.405 33.3962ZM109.385 35C110.234 35 110.895 34.3395 110.895 33.3962C110.895 32.4528 110.234 31.7924 109.385 31.7924C108.536 31.7924 107.97 32.4528 107.97 33.3962C107.875 34.3395 108.536 35 109.385 35Z" fill="#211915"/>
<path d="M86.2617 21.6981C85.035 21.6981 83.7135 21.6981 82.3928 21.6981C82.3928 22.1698 82.5816 22.4528 82.9592 22.6416C83.7135 23.0189 84.4686 22.8302 85.1298 22.2641C85.4126 22.5472 85.6962 22.7359 85.979 23.0189C85.6014 23.4906 85.1298 23.7736 84.5635 23.9622C83.9023 24.1509 83.2419 24.1509 82.6755 23.8679C81.5428 23.4906 80.9773 22.6416 80.8824 21.5095C80.7885 20.6604 80.9773 19.9057 81.4488 19.2453C82.1092 18.3962 83.3367 18.0189 84.4686 18.3019C85.4126 18.5849 86.1678 19.5283 86.2617 20.566C86.3566 21.0378 86.4505 21.4151 86.2617 21.6981ZM84.8462 20.7547C84.8462 20.0943 84.3747 19.5283 83.8083 19.5283C83.0531 19.5283 82.5816 19.9057 82.4867 20.7547C83.2419 20.7547 83.9971 20.7547 84.8462 20.7547Z" fill="#211915"/>
<path d="M110.707 10.4713C110.989 10.7543 111.272 10.943 111.556 11.226C111.272 11.6033 110.894 11.8864 110.423 12.0751C109.574 12.3581 108.724 12.3581 107.969 11.9807C106.837 11.4147 106.364 10.377 106.459 9.15058C106.553 7.8298 107.403 6.79205 108.63 6.60342C110.423 6.22601 111.556 7.16946 111.933 8.77316C112.027 9.15058 112.027 9.5279 112.027 9.90523C110.707 9.90523 109.385 9.90523 108.063 9.90523C108.158 10.377 108.347 10.7543 108.724 10.8487C109.385 11.226 110.045 11.0373 110.707 10.4713ZM110.329 8.86756C110.234 8.01851 109.668 7.54679 109.007 7.6411C108.347 7.73549 107.875 8.30153 107.969 8.86756C108.724 8.86756 109.574 8.86756 110.329 8.86756Z" fill="#211915"/>
<path d="M117.219 45.9431C115.991 45.9431 114.67 45.9431 113.349 45.9431C113.349 46.4148 113.632 46.6978 113.915 46.8864C114.67 47.2638 115.425 47.0751 116.086 46.5091C116.369 46.7921 116.652 46.9808 116.935 47.2638C116.557 47.7355 116.18 48.0185 115.614 48.1129C114.859 48.3015 114.104 48.3015 113.349 48.0185C112.122 47.5468 111.556 46.3204 111.744 44.9997C111.838 44.0563 112.311 43.3015 113.16 42.8299C114.859 41.8864 116.841 42.9242 117.124 44.811C117.124 45.094 117.219 45.377 117.219 45.66C117.313 45.7544 117.313 45.8487 117.219 45.9431ZM113.443 44.9997C114.198 44.9997 115.048 44.9997 115.802 44.9997C115.802 44.245 115.331 43.7732 114.67 43.7732C113.915 43.6789 113.349 44.3393 113.443 44.9997Z" fill="#211915"/>
<path d="M95.9834 45.9431C94.6619 45.9431 93.4351 45.9431 92.1136 45.9431C92.2084 46.4147 92.3963 46.6978 92.7739 46.8865C93.3403 47.2638 94.0015 47.0752 94.8507 46.5091C95.1334 46.6978 95.417 46.9808 95.6998 47.2638C95.3222 47.8298 94.7558 48.1128 94.0955 48.2072C93.5291 48.3016 92.9627 48.3016 92.4912 48.1129C91.3584 47.7355 90.6032 46.7922 90.5093 45.5657C90.5093 44.9054 90.6032 44.3393 90.8869 43.7733C91.4532 42.8298 92.4912 42.3582 93.7179 42.4525C94.6619 42.6412 95.511 43.3959 95.7946 44.4336C96.0774 44.9054 96.0774 45.3771 95.9834 45.9431ZM94.4731 44.9997C94.4731 44.245 93.9067 43.7733 93.3403 43.7733C92.68 43.7733 92.1136 44.3393 92.2084 44.9997C92.9627 44.9997 93.7179 44.9997 94.4731 44.9997Z" fill="#211915"/>
<path d="M108.536 21.6982C108.63 22.1698 108.818 22.5472 109.29 22.7358C110.045 23.0188 110.706 22.8302 111.272 22.3585C111.556 22.6415 111.838 22.8302 112.122 23.1132C111.744 23.5849 111.272 23.8679 110.706 24.0566C109.951 24.2453 109.29 24.2453 108.63 23.8679C107.592 23.3963 107.025 22.6415 107.025 21.5095C107.025 20.849 107.119 20.283 107.403 19.717C107.969 18.7736 109.007 18.2076 110.14 18.3963C111.272 18.5849 112.027 19.2453 112.311 20.3774C112.405 20.849 112.405 21.3207 112.311 21.7925C111.178 21.6982 109.856 21.6982 108.536 21.6982ZM110.895 20.7547C110.895 20 110.423 19.5283 109.762 19.5283C109.007 19.5283 108.536 20 108.536 20.7547C109.385 20.7547 110.14 20.7547 110.895 20.7547Z" fill="#211915"/>
<path d="M85.1299 32.1698C85.0351 31.7925 84.8463 31.415 84.7523 30.9434C85.2239 30.849 85.6015 30.6604 85.979 30.6604C86.6394 30.566 87.2058 30.566 87.8661 30.6604C88.7161 30.849 89.2825 31.5094 89.3765 32.3585C89.4713 32.9245 89.4713 33.5849 89.4713 34.1509C89.4713 34.8113 89.4713 35.4717 89.4713 36.132C88.9989 36.132 88.5273 36.132 88.0549 36.132C88.0549 35.9434 88.0549 35.849 87.9609 35.6604C87.8661 35.7547 87.7721 35.7547 87.6782 35.849C87.017 36.3207 86.2618 36.415 85.5066 36.2264C84.7523 36.0377 84.2799 35.4717 84.2799 34.7169C84.2799 34.0566 84.4687 33.4906 85.3178 33.1132C86.073 32.8301 86.8282 32.8301 87.5834 33.0188C87.6782 33.0188 87.7721 33.0188 87.8661 33.1132H87.9609C88.0549 32.5471 87.7721 32.1698 87.2058 32.0755C86.6394 31.9811 86.073 32.0755 85.6015 32.1698C85.3178 32.0755 85.2239 32.0755 85.1299 32.1698ZM87.8661 33.9623C87.3006 33.6792 86.7342 33.6793 86.1678 33.8679C85.7903 33.9623 85.6954 34.3396 85.6954 34.6226C85.6954 35 85.979 35.1887 86.3566 35.283C86.4506 35.283 86.6394 35.283 86.7342 35.283C87.4894 35.1887 87.9609 34.7169 87.8661 33.9623Z" fill="#211915"/>
<path d="M131.281 33.0187C131.281 32.3583 130.998 31.9809 130.431 31.8866C129.865 31.7922 129.393 31.8866 128.921 31.9809C128.827 31.9809 128.638 32.0752 128.543 32.0752C128.45 31.6979 128.261 31.3206 128.166 30.9432C128.544 30.7546 128.921 30.5658 129.393 30.5658C130.054 30.4715 130.62 30.4715 131.281 30.5658C132.13 30.7546 132.602 31.3206 132.791 32.1696C132.791 32.4527 132.885 32.7357 132.885 33.113C132.885 34.0564 132.885 35.0941 132.885 36.0376C132.413 36.0376 131.941 36.0376 131.469 36.0376C131.469 35.8489 131.469 35.7545 131.375 35.5658C131.281 35.6602 131.187 35.6601 131.092 35.7545C130.431 36.3206 129.581 36.3206 128.827 36.0376C128.166 35.8489 127.788 35.2828 127.788 34.6224C127.788 33.8677 128.072 33.3017 128.732 33.0187C129.487 32.6413 130.243 32.7357 131.092 32.9243C130.998 32.9243 131.187 33.0187 131.281 33.0187ZM131.281 33.962C130.714 33.679 130.148 33.679 129.581 33.8677C129.299 33.9621 129.11 34.2451 129.11 34.5281C129.11 34.8111 129.205 34.9998 129.487 35.1884C129.959 35.3771 130.431 35.3771 130.903 35.0941C131.281 34.8111 131.375 34.4338 131.281 33.962Z" fill="#211915"/>
<path d="M86.9231 8.96227C87.0171 8.30192 86.6395 7.8302 85.9792 7.8302C85.5076 7.8302 85.13 7.92451 84.6576 7.92451C84.4688 7.92451 84.3748 8.01891 84.1861 8.01891C84.0912 7.64149 83.9024 7.26417 83.8085 6.88684C84.8464 6.41512 85.8843 6.32072 86.9231 6.60382C87.8662 6.79244 88.3386 7.45287 88.4326 8.30192C88.5274 9.5283 88.4326 10.7548 88.4326 12.0755C87.961 12.0755 87.4895 12.0755 87.0171 12.0755C87.0171 11.8868 86.9231 11.7924 86.9231 11.6038C86.5455 11.7924 86.1679 11.9811 85.8843 12.0755C85.4128 12.2642 84.9412 12.1698 84.4688 11.9811C83.8085 11.7924 83.4309 11.2264 83.3369 10.4717C83.3369 9.62261 83.6197 9.05658 84.3748 8.86796C85.0352 8.58494 85.7904 8.58494 86.5455 8.77356C86.5455 8.86796 86.7343 8.86796 86.9231 8.96227ZM86.9231 9.90563C86.4507 9.62261 85.7904 9.5283 85.3188 9.71701C85.224 9.81132 85.0352 9.81132 84.9412 10C84.6576 10.283 84.7524 10.7548 84.9412 10.9434C85.224 11.2264 85.9792 11.2264 86.4507 11.0378C86.8283 10.7547 87.0171 10.3774 86.9231 9.90563Z" fill="#211915"/>
<path d="M118.634 48.1128C118.634 46.226 118.634 44.4336 118.634 42.5468C119.106 42.5468 119.578 42.5468 120.05 42.5468C120.05 42.7355 120.144 43.0185 120.144 43.3015C120.239 43.2071 120.333 43.1128 120.427 43.0185C120.994 42.3581 121.749 42.3581 122.503 42.5468C123.258 42.8298 123.542 43.3959 123.636 44.1506C123.731 45.4714 123.636 46.6977 123.636 48.0185C123.164 48.0185 122.692 48.0185 122.127 48.0185C122.127 47.9241 122.127 47.7355 122.127 47.6411C122.127 46.8865 122.127 46.0374 122.127 45.2827C122.127 45.094 122.127 44.9996 122.127 44.8109C122.127 44.2449 121.749 43.8676 121.183 43.8676C120.616 43.8676 120.144 44.1506 120.144 44.7166C120.05 45.66 120.144 46.6034 120.05 47.5468C120.05 47.7355 120.05 47.9241 120.05 48.1128C119.578 48.1128 119.106 48.1128 118.634 48.1128Z" fill="#211915"/>
<path d="M137.604 44.9999C137.604 44.2452 137.321 43.8678 136.66 43.8678C136.283 43.8678 135.811 43.9621 135.433 43.9621C135.244 43.9621 135.15 44.0565 134.962 44.0565C134.867 43.6791 134.678 43.3018 134.584 42.9245C135.717 42.4527 136.755 42.264 137.888 42.6414C138.643 42.9245 139.114 43.4905 139.114 44.2452C139.208 45.4716 139.114 46.7924 139.114 48.0188C138.643 48.0188 138.17 48.0188 137.699 48.0188C137.699 47.8301 137.604 47.7358 137.604 47.547C137.51 47.6414 137.415 47.6414 137.415 47.6414C136.755 48.2075 136 48.2075 135.244 48.0188C134.489 47.8301 134.018 47.264 134.018 46.5094C134.018 45.6602 134.3 45.0942 135.056 44.8112C135.717 44.5282 136.377 44.6226 137.038 44.7169C137.226 44.9056 137.415 44.9999 137.604 44.9999ZM137.604 45.9433C137.132 45.6603 136.283 45.6603 135.906 45.7546C135.622 45.8489 135.433 46.0377 135.433 46.415C135.433 46.698 135.528 46.8867 135.717 47.0754C136.188 47.3584 136.66 47.3584 137.132 47.0754C137.51 46.7924 137.699 46.415 137.604 45.9433Z" fill="#211915"/>
<path d="M89.849 12.0753C89.849 10.1884 89.849 8.39604 89.849 6.60354C90.3205 6.60354 90.7921 6.60354 91.2645 6.60354C91.2645 6.79225 91.3585 7.07527 91.3585 7.35828C91.4533 7.26397 91.5473 7.16957 91.6421 7.07526C92.2085 6.41492 92.9628 6.32052 93.8128 6.60354C94.568 6.88656 94.8507 7.45259 94.9447 8.20733C95.0395 9.52811 94.9447 10.7545 94.9447 12.0753C94.4731 12.0753 93.9068 12.0753 93.4352 12.0753C93.4352 11.9809 93.4352 11.7922 93.4352 11.6979C93.4352 10.8489 93.4352 9.99983 93.4352 9.24509C93.4352 9.05638 93.4352 8.96207 93.4352 8.77336C93.3404 8.20733 93.0576 7.92431 92.4912 7.83C91.9249 7.83 91.5473 8.11302 91.4533 8.67905C91.4533 8.86776 91.3585 9.05638 91.3585 9.24509C91.3585 9.99983 91.3585 10.8489 91.3585 11.6035C91.3585 11.7922 91.3585 11.8865 91.3585 12.0753C90.8869 12.0753 90.4145 12.0753 89.849 12.0753Z" fill="#211915"/>
<path d="M98.6256 23.9621C98.154 23.9621 97.6816 23.9621 97.1152 23.9621C97.1152 23.7735 97.1152 23.4905 97.0213 23.2075C96.8325 23.3961 96.7385 23.4905 96.6437 23.5848C95.8885 24.3395 94.2842 24.2451 93.8127 23.3018C93.6239 22.9244 93.5291 22.547 93.5291 22.1697C93.5291 20.9433 93.5291 19.8113 93.5291 18.5848V18.4905C94.0015 18.4905 94.473 18.4905 95.0394 18.4905C95.0394 18.5848 95.0394 18.7735 95.0394 18.8678C95.0394 19.7169 95.0394 20.6603 95.0394 21.5094C95.0394 21.6037 95.0394 21.7924 95.0394 21.8867C95.1334 22.4527 95.5109 22.7357 95.9834 22.7357C96.4549 22.7357 96.9273 22.4527 97.0213 21.981C97.0213 21.7924 97.1152 21.6037 97.1152 21.415C97.1152 20.5659 97.1152 19.8113 97.1152 18.9621C97.1152 18.7735 97.1152 18.6791 97.1152 18.4905C97.5877 18.4905 98.0592 18.4905 98.6256 18.4905C98.6256 20.2829 98.6256 22.0754 98.6256 23.9621Z" fill="#211915"/>
<path d="M144.116 23.962C144.116 23.0186 144.116 22.0752 144.116 21.1318C144.116 20.9431 144.116 20.7545 144.116 20.5658C144.022 20.094 143.739 19.7167 143.173 19.7167C142.607 19.7167 142.229 19.9997 142.134 20.4715C142.134 20.6601 142.04 20.8488 142.04 21.1318C142.04 21.8865 142.04 22.7356 142.04 23.4903C142.04 23.679 142.04 23.7733 142.04 23.962C141.568 23.962 141.096 23.962 140.53 23.962C140.53 22.1696 140.53 20.2828 140.53 18.4903C141.001 18.4903 141.474 18.4903 141.945 18.4903C141.945 18.679 141.945 18.962 142.04 19.245C142.134 19.1507 142.229 19.0563 142.323 18.962C142.889 18.3016 143.645 18.2072 144.4 18.4903C144.871 18.679 145.249 18.962 145.344 19.4337C145.438 19.7167 145.532 19.9997 145.532 20.2828C145.532 21.4148 145.532 22.6412 145.532 23.7733C145.532 23.8677 145.532 23.8677 145.532 23.962C145.06 23.962 144.589 23.962 144.116 23.962Z" fill="#211915"/>
<path d="M122.88 23.9622C122.409 23.9622 122.031 23.9622 121.56 23.9622C121.56 23.7736 121.465 23.6792 121.465 23.4906C121.371 23.5849 121.276 23.5849 121.182 23.6792C120.521 24.2452 119.672 24.2452 118.917 24.0566C118.256 23.8679 117.879 23.3019 117.785 22.5471C117.785 21.7924 118.068 21.2264 118.728 20.9433C119.389 20.6603 120.049 20.6603 120.805 20.7547C120.993 20.7547 121.182 20.849 121.371 20.849C121.465 20.283 121.182 19.9057 120.71 19.8113C120.238 19.717 119.767 19.717 119.294 19.8113C119.105 19.8113 118.917 19.9057 118.634 20C118.539 19.6227 118.35 19.2452 118.256 18.8679C118.634 18.7736 119.012 18.5849 119.389 18.5849C120.049 18.4906 120.71 18.4906 121.371 18.5849C122.22 18.7736 122.787 19.4339 122.787 20.283C122.88 21.5094 122.787 22.7358 122.787 23.9622C122.88 23.8679 122.88 23.8679 122.88 23.9622ZM121.465 21.6981C120.899 21.5094 120.332 21.4151 119.767 21.6038C119.483 21.6981 119.294 21.8868 119.294 22.2641C119.294 22.5471 119.389 22.7358 119.578 22.9245C120.049 23.2076 120.521 23.1132 120.993 22.9245C121.371 22.6415 121.56 22.2641 121.465 21.6981Z" fill="#211915"/>
<path d="M95.8884 36.1321C95.4169 36.1321 94.9445 36.1321 94.3789 36.1321C94.3789 35.9435 94.3789 35.8491 94.3789 35.6604C94.3789 34.8113 94.3789 34.0567 94.3789 33.2076C94.3789 33.0189 94.3789 32.8302 94.2841 32.6416C94.1901 32.0755 93.8126 31.7925 93.2462 31.7925C92.6798 31.7925 92.3962 32.1698 92.3022 32.7359C92.3022 32.9246 92.3022 33.0189 92.3022 33.2076C92.3022 34.151 92.3022 35.0943 92.3022 36.0378C92.0195 36.1321 91.1695 36.1321 90.7919 36.0378C90.7919 34.2453 90.7919 32.4529 90.7919 30.5661C91.2643 30.5661 91.7358 30.5661 92.3022 30.5661C92.3022 30.7548 92.3022 31.0378 92.3022 31.3208C92.3962 31.2265 92.491 31.1321 92.585 31.0378C93.1514 30.4717 93.9065 30.283 94.6617 30.5661C95.322 30.7548 95.7944 31.3208 95.7944 32.0755C95.8884 33.3962 95.8884 34.8113 95.8884 36.1321Z" fill="#211915"/>
<path d="M73.3322 42.6414C73.8984 42.6414 74.3703 42.6414 74.9366 42.6414C75.3144 43.8678 75.7859 45.0942 76.1635 46.3206H76.2575C76.7299 45.0942 77.0127 43.8678 77.4851 42.6414C77.9566 42.6414 78.523 42.6414 78.9946 42.6414C78.9946 42.7357 78.9006 42.8301 78.9006 42.9244C78.2403 44.7169 77.579 46.5093 76.8239 48.3961C76.7299 48.6791 76.6351 48.8678 76.5411 49.0564C76.2575 49.6225 75.7859 49.9055 75.1256 49.9055C74.6535 49.9055 74.1816 49.9055 73.7097 49.5282C73.8984 49.1508 73.9928 48.8678 74.1816 48.4904C74.6535 48.5848 75.1256 48.8678 75.5032 48.3017C74.7478 46.415 73.9928 44.5282 73.3322 42.6414Z" fill="#211915"/>
<path d="M72.9546 30.3772C72.9546 29.9055 72.9546 29.4339 72.9546 28.9622C74.9366 28.9622 76.9186 28.9622 78.9945 28.9622C78.9945 29.4339 78.9945 29.8112 78.9945 30.3772C78.2402 30.3772 77.579 30.3772 76.8238 30.3772C76.8238 31.0376 76.8238 31.698 76.8238 32.3584C76.8238 33.0188 76.8238 33.6791 76.8238 34.2452C76.8238 34.9055 76.8238 35.5659 76.8238 36.2263C76.3523 36.2263 75.7859 36.2263 75.3143 36.2263C75.3143 34.2452 75.3143 32.3584 75.3143 30.3772C74.4647 30.3772 73.7096 30.3772 72.9546 30.3772Z" fill="#211915"/>
<path d="M105.704 31.8865C105.326 31.8865 104.949 31.8865 104.477 31.8865C104.477 33.3016 104.477 34.7167 104.477 36.1317C103.911 36.1317 103.439 36.1317 102.967 36.1317C102.967 34.7167 102.967 33.3959 102.967 31.9808C102.778 31.9808 102.495 31.9808 102.307 31.8865C102.307 31.5092 102.307 31.1318 102.307 30.6601C102.495 30.6601 102.684 30.6601 102.873 30.6601C102.873 30.3771 102.873 30.1884 102.967 29.9054C103.062 29.0563 103.439 28.6789 104.288 28.5846C104.666 28.4903 105.326 28.5846 105.704 28.7733C105.704 29.1506 105.704 29.528 105.704 29.9997C105.515 29.9997 105.421 29.9054 105.232 29.9054C104.571 29.8111 104.382 29.9997 104.477 30.7544C104.855 30.7544 105.326 30.7544 105.704 30.7544C105.704 31.0374 105.704 31.4148 105.704 31.8865Z" fill="#211915"/>
<path d="M96.8325 47.4526C97.0213 47.1696 97.2101 46.7922 97.4929 46.5092C97.5877 46.6035 97.7765 46.6978 97.8705 46.6978C98.3429 46.9808 98.9092 47.1696 99.4748 47.0752C99.8524 47.0752 100.041 46.8865 99.9472 46.4148C99.8523 46.3205 99.6636 46.2262 99.4748 46.1318C99.098 46.0375 98.7204 45.9431 98.4368 45.7545C98.3429 45.7545 98.248 45.6601 98.0592 45.6601C97.4929 45.3771 97.1153 44.9054 97.1153 44.245C97.1153 43.5846 97.3989 43.0186 98.0592 42.7356C98.7205 42.4526 99.3808 42.4526 100.041 42.6413C100.419 42.7356 100.796 42.9243 101.269 43.1129C101.08 43.4903 100.891 43.8677 100.702 44.1507C100.325 43.962 99.9472 43.8677 99.5696 43.7734C99.3808 43.679 99.192 43.679 99.0032 43.7734C98.8144 43.7734 98.6256 43.962 98.6256 44.1507C98.6256 44.3394 98.8144 44.528 99.0032 44.528C99.2868 44.6224 99.5696 44.7167 99.8523 44.811C100.136 44.9054 100.514 45.094 100.796 45.1884C101.929 45.8488 101.551 47.4526 100.702 47.8299C100.136 48.1129 99.5696 48.2073 99.0032 48.1129C98.1541 48.2073 97.4929 47.9243 96.8325 47.4526Z" fill="#211915"/>
<path d="M101.269 31.2263C101.174 31.415 100.985 31.698 100.891 31.9811C100.891 32.0754 100.796 32.1697 100.702 32.2641C100.419 32.1697 100.23 31.9811 99.9472 31.9811C99.6636 31.8867 99.2869 31.7923 99.0033 31.8867C98.7205 31.8867 98.6257 32.0754 98.6257 32.4527C98.8145 32.5471 99.0033 32.6414 99.286 32.7357C99.5696 32.8301 99.9472 32.9244 100.23 33.1131C100.325 33.1131 100.514 33.2074 100.608 33.3017C101.174 33.6792 101.552 34.1508 101.458 34.8112C101.363 35.4716 101.08 35.9433 100.514 36.132C99.6636 36.5093 98.8145 36.415 98.0593 36.0376C97.6817 35.9433 97.3989 35.6603 97.0214 35.4716C97.2102 35.0942 97.4929 34.8112 97.6817 34.4338C97.7765 34.5282 97.8705 34.5282 97.9653 34.6225C98.3429 34.9055 98.8145 34.9998 99.1921 35.0942C99.3808 35.0942 99.4748 35.0942 99.6636 35.0942C99.8524 35.0942 100.041 34.9998 100.041 34.7168C100.041 34.4338 99.8524 34.3395 99.6636 34.2452C99.4748 34.1508 99.3808 34.1508 99.1921 34.0565C98.9093 33.9622 98.6257 33.8678 98.3429 33.7735C97.4929 33.4904 97.1153 32.9244 97.2102 32.0754C97.3041 31.3206 97.8705 30.7546 98.6257 30.566C99.5696 30.3773 100.419 30.566 101.174 31.0376C101.174 31.132 101.174 31.132 101.269 31.2263Z" fill="#211915"/>
<path d="M91.5473 22.2642C91.8309 22.5472 92.1137 22.8302 92.3965 23.1133C91.4534 24.3396 89.4715 24.434 88.2439 23.3963C87.0172 22.3585 86.9232 20.2831 88.1499 19.151C89.2827 18.019 91.4534 18.1133 92.3965 19.2453C92.1137 19.5284 91.8309 19.9057 91.4534 20.1888C90.9809 19.8114 90.5094 19.5283 89.943 19.6227C89.6603 19.7171 89.3766 19.8114 89.0939 20.0944C88.6215 20.6604 88.6215 21.6982 89.0939 22.2642C89.8491 23.0189 90.6034 22.9246 91.5473 22.2642Z" fill="#211915"/>
<path d="M129.11 44.4339C128.166 43.7736 127.411 43.6793 126.845 44.2453C126.279 44.8113 126.279 45.849 126.751 46.5094C127.317 47.1698 128.072 47.1698 129.11 46.5094C129.393 46.7924 129.676 47.0755 129.959 47.3585C129.016 48.6792 126.845 48.5849 125.807 47.6415C124.58 46.5094 124.58 44.5283 125.713 43.3962C126.845 42.2642 129.11 42.2641 129.959 43.4906C129.676 43.7736 129.393 44.0566 129.11 44.4339Z" fill="#211915"/>
<path d="M128.261 20.1886C127.411 19.4339 126.562 19.4339 125.995 19.9999C125.429 20.566 125.429 21.6981 125.995 22.2642C126.562 22.9245 127.411 22.9245 128.355 22.1698C128.45 22.2642 128.638 22.4528 128.827 22.6415C129.016 22.7358 129.11 22.9245 129.299 23.0188C128.638 23.9623 127.317 24.3396 126.184 24.0566C125.051 23.7735 124.202 22.7358 124.108 21.6037C124.013 19.9999 124.863 18.9623 125.901 18.5848C127.034 18.1132 128.45 18.4905 129.205 19.3396C128.921 19.6226 128.638 19.9056 128.261 20.1886Z" fill="#211915"/>
<path d="M139.114 31.4149C138.831 31.6979 138.548 32.0753 138.17 32.3583C137.793 31.9809 137.321 31.6979 136.66 31.7922C136.377 31.8866 136.095 31.9809 135.811 32.264C135.339 32.83 135.339 33.8678 135.811 34.5281C136.377 35.1884 137.133 35.1884 138.17 34.4338C138.454 34.7168 138.737 34.9998 139.02 35.2828C137.888 36.6036 135.811 36.5092 134.773 35.4715C133.64 34.3394 133.64 32.3583 134.773 31.2262C136 30.1885 138.076 30.2828 139.114 31.4149Z" fill="#211915"/>
<path d="M107.403 48.1128C106.931 48.1128 106.364 48.1128 105.893 48.1128C105.893 45.5657 105.893 43.1128 105.893 40.5657C106.364 40.5657 106.931 40.5657 107.403 40.5657C107.403 43.1128 107.403 45.6601 107.403 48.1128Z" fill="#211915"/>
<path d="M115.142 30.6603C115.142 31.0376 115.142 31.3207 115.142 31.6037C115.142 31.6037 115.142 31.6037 115.237 31.6981C115.613 31.0376 116.086 30.4716 116.935 30.566C116.935 31.132 116.935 31.6037 116.935 32.1697C116.841 32.1697 116.841 32.1697 116.746 32.2641C115.802 32.2641 115.237 32.9244 115.142 33.9622C115.142 34.6225 115.142 35.283 115.142 35.849C115.142 35.9433 115.142 36.0376 115.142 36.2263C114.67 36.2263 114.198 36.2263 113.632 36.2263C113.632 34.4338 113.632 32.6414 113.632 30.7546C114.104 30.566 114.576 30.6603 115.142 30.6603Z" fill="#211915"/>
<path d="M82.0153 12.0754C81.5429 12.0754 81.0714 12.0754 80.5998 12.0754C80.505 11.7924 80.505 5.18863 80.5998 4.52828C81.0714 4.43389 81.5429 4.52828 82.0153 4.52828C82.0153 7.07543 82.0153 9.52827 82.0153 12.0754Z" fill="#211915"/>
<path d="M83.4308 32.0752C83.3368 32.0752 83.242 32.0752 83.148 32.0752C82.298 32.1696 81.8265 32.6413 81.7316 33.4903C81.6377 33.962 81.6377 34.5281 81.6377 34.9998C81.6377 35.3771 81.6377 35.7544 81.6377 36.1319C81.1652 36.1319 80.6937 36.1319 80.1273 36.1319C80.1273 34.3394 80.1273 32.5469 80.1273 30.6601C80.5997 30.6601 81.0713 30.6601 81.6377 30.6601C81.6377 31.0376 81.6377 31.3206 81.6377 31.6036H81.7316C82.0152 31.2262 82.204 30.7545 82.7704 30.5658C82.9592 30.4714 83.242 30.4714 83.4308 30.4714C83.4308 31.0375 83.4308 31.5092 83.4308 32.0752Z" fill="#211915"/>
<path d="M115.237 23.962C114.67 23.962 114.293 23.962 113.726 23.962C113.726 22.0752 113.726 20.2828 113.726 18.4903C114.198 18.4903 114.67 18.4903 115.237 18.4903C115.237 18.7733 115.237 19.1507 115.237 19.4337H115.331C115.613 19.0563 115.802 18.5847 116.275 18.396C116.463 18.3017 116.746 18.3017 117.03 18.2073C117.03 18.7733 117.03 19.245 117.03 19.8111C116.935 19.8111 116.746 19.9054 116.652 19.9054C115.897 19.9998 115.425 20.4714 115.331 21.2261C115.237 21.5092 115.237 21.7922 115.237 22.0752C115.237 22.7356 115.237 23.3017 115.237 23.962Z" fill="#211915"/>
<path d="M141.851 36.1319C141.379 36.1319 140.907 36.1319 140.341 36.1319C140.341 34.3394 140.341 32.4527 140.341 30.6602C140.813 30.6602 141.285 30.6602 141.851 30.6602C141.851 32.4527 141.851 34.2451 141.851 36.1319Z" fill="#211915"/>
<path d="M130.432 18.3962C130.903 18.3962 131.375 18.3962 131.847 18.3962C131.941 18.6793 131.941 23.4905 131.847 23.9623C131.375 23.9623 130.903 23.9623 130.432 23.9623C130.432 22.0755 130.432 20.283 130.432 18.3962Z" fill="#211915"/>
<path d="M132.696 48.2074C132.224 48.2074 131.752 48.2074 131.28 48.2074C131.186 47.9244 131.186 43.2074 131.28 42.6414C131.752 42.6414 132.224 42.6414 132.696 42.6414C132.696 44.4339 132.696 46.3206 132.696 48.2074Z" fill="#211915"/>
<path d="M110.423 48.2074C109.951 48.2074 109.479 48.2074 109.007 48.2074C109.007 46.3206 109.007 44.5282 109.007 42.6414C109.479 42.6414 109.951 42.6414 110.423 42.6414C110.612 43.1131 110.518 47.9244 110.423 48.2074Z" fill="#211915"/>
<path d="M102.684 42.6414C103.156 42.6414 103.628 42.6414 104.1 42.6414C104.1 44.5282 104.1 46.3206 104.1 48.2074C103.628 48.2074 103.156 48.2074 102.684 48.2074C102.684 47.8301 102.589 43.1131 102.684 42.6414Z" fill="#211915"/>
<path d="M147.042 22.4529C147.608 22.4529 148.08 22.4529 148.646 22.4529C148.646 23.2076 148.741 23.9623 148.552 24.717C148.363 25.3774 147.608 25.7548 146.853 25.6604C146.853 25.4718 146.759 25.3774 146.759 25.0943C147.325 25 147.797 24.717 147.797 23.9623C147.608 23.9623 147.419 23.9623 147.231 23.868C147.042 23.4906 147.042 22.9246 147.042 22.4529Z" fill="#211915"/>
<path d="M131.187 41.8864C131.187 41.4147 131.187 41.0374 131.187 40.5657C131.752 40.5657 132.225 40.5657 132.791 40.5657C132.791 41.0374 132.791 41.4147 132.791 41.8864C132.225 41.8864 131.752 41.8864 131.187 41.8864Z" fill="#211915"/>
<path d="M109.007 41.8864C109.007 41.4147 109.007 41.0374 109.007 40.5657C109.574 40.5657 110.045 40.5657 110.612 40.5657C110.612 41.0374 110.612 41.4147 110.612 41.8864C110.045 41.8864 109.574 41.8864 109.007 41.8864Z" fill="#211915"/>
<path d="M104.194 40.6602C104.194 41.1319 104.194 41.5092 104.194 41.9809C103.628 41.9809 103.156 41.9809 102.589 41.9809C102.589 41.6035 102.589 41.1319 102.589 40.6602C103.156 40.6602 103.722 40.6602 104.194 40.6602Z" fill="#211915"/>
<path d="M131.941 16.415C131.941 16.8868 131.941 17.2641 131.941 17.7358C131.375 17.7358 130.903 17.7358 130.337 17.7358C130.337 17.2641 130.337 16.8868 130.337 16.415C130.903 16.415 131.469 16.415 131.941 16.415Z" fill="#211915"/>
<path d="M136.944 17.7358C136.566 17.7358 136.188 17.7358 135.811 17.7358C136.188 17.1697 136.566 16.6037 136.944 15.9434C137.415 16.132 137.793 16.3207 138.265 16.5094C137.699 16.981 137.321 17.3584 136.944 17.7358Z" fill="#211915"/>
<path d="M146.853 29.9055C146.476 29.9055 146.098 29.9055 145.72 29.9055C146.098 29.3394 146.476 28.7734 146.853 28.113C147.326 28.3017 147.703 28.4904 148.175 28.6791C147.608 29.1508 147.231 29.5281 146.853 29.9055Z" fill="#211915"/>
<path d="M140.341 28.5847C140.813 28.5847 141.379 28.5847 141.851 28.5847C141.851 28.9621 141.851 29.4339 141.851 29.9055C141.379 29.9055 140.813 29.9055 140.341 29.9055C140.341 29.4339 140.341 29.0564 140.341 28.5847Z" fill="#211915"/>
<path d="M153.932 36.1319C153.932 35.1885 153.932 34.2451 153.932 33.3017C153.932 33.113 153.932 32.9243 153.932 32.7357C153.838 32.264 153.554 31.8866 152.988 31.8866C152.422 31.8866 152.044 32.1696 151.95 32.6413C151.95 32.83 151.856 33.0187 151.856 33.3017C151.856 34.0564 151.856 34.9055 151.856 35.6602C151.856 35.8489 151.856 35.9432 151.856 36.1319C151.383 36.1319 150.912 36.1319 150.345 36.1319C150.345 34.3394 150.345 32.4526 150.345 30.6602C150.817 30.6602 151.289 30.6602 151.761 30.6602C151.761 30.8489 151.761 31.1319 151.856 31.4149C151.95 31.3205 152.044 31.2262 152.138 31.1319C152.705 30.4715 153.46 30.3772 154.215 30.6602C154.687 30.8489 155.064 31.1319 155.158 31.6036C155.253 31.8866 155.347 32.1696 155.347 32.4526C155.347 33.5848 155.347 34.8111 155.347 35.9432C155.347 36.0375 155.347 36.0375 155.347 36.1319C154.969 36.1319 154.498 36.1319 153.932 36.1319Z" fill="#211915"/>
</svg>
