<svg width="211" height="50" viewBox="0 0 211 50" fill="none" xmlns="http://www.w3.org/2000/svg">
<path d="M83.8676 11.2382V0.236084H91.4695V2.05086H86.1365V4.65957H90.676V6.47442H86.1365V11.1247L83.8676 11.2382Z" fill="#211915"/>
<path d="M93.1715 2.1643V0.236084H95.3279V2.1643H93.1715ZM93.1715 11.2382V3.29849H95.3279V11.3516L93.1715 11.2382Z" fill="#211915"/>
<path d="M104.746 11.238H102.59V7.15473C102.59 6.58759 102.59 6.02045 102.476 5.4534C102.363 5.22651 102.25 4.99962 102.023 4.88627C101.795 4.77282 101.569 4.65938 101.228 4.65938C100.888 4.65938 100.547 4.77282 100.207 4.99962C99.9798 5.22651 99.7531 5.45332 99.6398 5.79365C99.5264 6.36079 99.413 7.04128 99.5264 7.60842V11.238H97.37V3.2983H99.413V4.43257C100.321 3.18485 101.909 2.73116 103.271 3.2983C103.611 3.41174 103.952 3.63855 104.178 3.97888C104.405 4.20568 104.518 4.54593 104.633 4.88627C104.746 5.33996 104.746 5.79365 104.746 6.24734V11.238Z" fill="#211915"/>
<path d="M108.49 5.68049L106.561 5.34024C106.675 4.65966 107.128 4.09261 107.696 3.63892C108.377 3.18522 109.171 3.07178 110.079 3.07178C110.76 3.07178 111.554 3.18522 112.121 3.41203C112.575 3.63891 112.916 3.86572 113.142 4.31941C113.37 4.88655 113.483 5.56704 113.37 6.24763V8.74298C113.37 9.31003 113.37 9.76372 113.483 10.3309C113.597 10.6711 113.71 11.1248 113.823 11.4651H111.781C111.781 11.3517 111.668 11.1248 111.554 10.7846C111.554 10.6711 111.554 10.5578 111.44 10.5578C111.1 10.898 110.76 11.1248 110.306 11.3517C109.852 11.5785 109.398 11.5785 108.945 11.5785C108.264 11.5785 107.583 11.3517 107.015 10.898C106.221 10.1041 106.107 8.96978 106.675 7.94895C106.902 7.60871 107.242 7.38182 107.583 7.15501C108.15 6.92812 108.717 6.70132 109.285 6.70132C109.966 6.58787 110.646 6.36107 111.327 6.13418V5.90738C111.327 5.56704 111.213 5.2268 110.987 4.99999C110.76 4.7731 110.306 4.7731 109.966 4.7731C109.625 4.7731 109.398 4.7731 109.058 4.99999C108.83 5.11335 108.604 5.45369 108.49 5.68049ZM111.327 7.3819C110.873 7.49526 110.419 7.6087 110.079 7.72215C109.738 7.83559 109.285 7.94895 108.945 8.0624C108.717 8.17584 108.49 8.51609 108.49 8.85634C108.49 9.19667 108.604 9.42348 108.83 9.65037C109.058 9.87717 109.285 9.99061 109.625 9.99061C110.079 9.99061 110.419 9.87717 110.76 9.65037C110.987 9.42348 111.213 9.19667 111.213 8.96978C111.327 8.62954 111.327 8.2892 111.327 7.94895V7.3819Z" fill="#211915"/>
<path d="M122.674 11.238H120.519V7.15473C120.519 6.58759 120.519 6.02045 120.405 5.4534C120.292 5.22651 120.178 4.99962 119.951 4.88627C119.724 4.77282 119.497 4.65938 119.27 4.65938C118.93 4.65938 118.59 4.77282 118.249 4.99962C118.022 5.22651 117.795 5.45332 117.682 5.79365C117.568 6.36079 117.454 7.04128 117.568 7.60842V11.238H115.412V3.2983H117.341V4.43257C118.249 3.18485 119.838 2.73116 121.2 3.2983C121.54 3.41174 121.88 3.63855 122.107 3.97888C122.334 4.20568 122.447 4.54593 122.561 4.88627C122.674 5.33996 122.674 5.79365 122.674 6.24734V11.238Z" fill="#211915"/>
<path d="M131.752 5.56705L129.709 5.90738C129.709 5.56704 129.482 5.2268 129.256 4.99999C128.916 4.88655 128.575 4.7731 128.235 4.7731C127.78 4.7731 127.327 4.99999 126.986 5.34024C126.646 5.90738 126.419 6.47443 126.532 7.15501C126.419 7.83551 126.646 8.51609 126.986 9.19667C127.327 9.53692 127.78 9.76372 128.235 9.76372C128.575 9.76372 128.916 9.65036 129.256 9.42348C129.596 9.08323 129.709 8.74289 129.823 8.2892L131.865 8.62953C131.752 9.42348 131.298 10.2174 130.617 10.7846C129.937 11.3517 129.029 11.5785 128.121 11.4651C127.099 11.4651 126.078 11.1248 125.284 10.3309C124.604 9.42348 124.149 8.40265 124.263 7.26846C124.149 6.13418 124.604 4.99999 125.284 4.20597C125.965 3.41203 127.099 3.07178 128.121 3.07178C128.916 3.07178 129.709 3.29858 130.39 3.75227C131.184 4.20597 131.639 4.88655 131.752 5.56705Z" fill="#211915"/>
<path d="M133.341 2.1643V0.236084H135.496V2.1643H133.341ZM133.341 11.2382V3.29849H135.496V11.3516L133.341 11.2382Z" fill="#211915"/>
<path d="M139.241 5.68049L137.312 5.34024C137.425 4.65966 137.88 4.09261 138.446 3.63892C139.127 3.18522 139.922 3.07178 140.829 3.07178C141.51 3.07178 142.305 3.18522 142.986 3.41203C143.439 3.63891 143.78 3.86572 144.007 4.31941C144.234 4.88655 144.347 5.56704 144.234 6.24763V8.74298C144.234 9.31003 144.234 9.76372 144.347 10.3309C144.46 10.6711 144.575 11.1248 144.688 11.4651H142.532C142.418 11.3517 142.418 11.1248 142.305 10.7846C142.305 10.6711 142.305 10.6711 142.192 10.5578C141.851 10.898 141.51 11.1248 141.056 11.3517C140.603 11.5785 140.148 11.5785 139.695 11.5785C139.014 11.5785 138.333 11.3517 137.766 10.898C137.312 10.4443 137.085 9.87717 137.085 9.19667C137.085 8.74298 137.199 8.40265 137.425 7.94895C137.653 7.60871 137.993 7.38182 138.333 7.15501C138.901 6.92812 139.468 6.70132 140.035 6.70132C140.716 6.58787 141.397 6.36107 142.078 6.13418V5.90738C142.078 5.56704 141.965 5.2268 141.737 4.99999C141.397 4.7731 140.943 4.65966 140.603 4.7731C140.035 4.65966 139.355 5.11335 139.241 5.68049ZM142.078 7.3819C141.624 7.49526 141.17 7.6087 140.829 7.72215C140.489 7.83559 140.035 7.94895 139.695 8.0624C139.468 8.17584 139.241 8.51609 139.241 8.85634C139.241 9.19667 139.355 9.42348 139.582 9.65037C139.808 9.87717 140.148 9.99061 140.376 9.99061C140.829 9.99061 141.17 9.87717 141.51 9.65037C141.737 9.42348 141.965 9.19667 141.965 8.96978C142.078 8.62954 142.078 8.2892 142.078 7.94895V7.3819Z" fill="#211915"/>
<path d="M153.539 11.2382H151.61V10.104C151.269 10.5577 150.929 10.8979 150.474 11.1247C150.021 11.3516 149.567 11.465 149.113 11.465C148.206 11.465 147.298 11.0114 146.73 10.3308C146.049 9.42338 145.709 8.40255 145.709 7.26836C145.596 6.13409 145.936 5.11326 146.617 4.20587C147.184 3.52538 148.092 3.18513 149 3.18513C149.908 3.18513 150.815 3.63882 151.382 4.31932V0.236084H153.539V11.2382ZM147.978 7.04148C147.978 7.72206 148.092 8.2892 148.319 8.85625C148.659 9.42338 149.113 9.65027 149.68 9.65027C150.134 9.65027 150.588 9.42338 150.929 8.96969C151.269 8.40255 151.496 7.72206 151.382 7.15492C151.496 6.47434 151.269 5.79384 150.929 5.11326C150.361 4.43276 149.34 4.31932 148.659 4.77301C148.546 4.88646 148.432 4.9999 148.432 4.9999C147.978 5.79384 147.865 6.36098 147.978 7.04148Z" fill="#211915"/>
<path d="M155.127 7.15501C155.127 6.47443 155.354 5.79393 155.694 5.11335C156.035 4.43286 156.488 3.97916 157.169 3.63892C157.85 3.29858 158.532 3.07178 159.326 3.07178C160.46 3.07178 161.481 3.41203 162.276 4.20597C163.07 4.99999 163.41 6.02074 163.41 7.15501C163.41 8.2892 163.07 9.31003 162.276 10.1041C161.481 10.898 160.46 11.3517 159.326 11.3517C158.645 11.3517 157.85 11.1248 157.169 10.898C156.488 10.5578 156.035 10.1041 155.694 9.42348C155.241 8.74298 155.127 7.94895 155.127 7.15501ZM157.283 7.26846C157.283 7.94895 157.396 8.62954 157.851 9.08323C158.191 9.53692 158.758 9.76372 159.212 9.76372C159.779 9.76372 160.347 9.53692 160.687 9.08323C161.141 8.51609 161.255 7.94895 161.255 7.26846C161.255 6.58787 161.141 6.02074 160.687 5.45369C160.006 4.65966 158.872 4.65966 158.077 5.2268C157.964 5.34024 157.964 5.34024 157.851 5.45369C157.51 5.90738 157.283 6.58787 157.283 7.26846Z" fill="#211915"/>
<path d="M169.198 3.29858H171.126V4.43286C171.353 3.97916 171.694 3.63891 172.147 3.41203C172.602 3.18522 173.055 3.07178 173.623 3.07178C174.531 3.07178 175.438 3.52547 176.006 4.20597C176.686 5.11335 177.027 6.13418 177.027 7.26846C177.14 8.40265 176.8 9.53692 176.006 10.3309C175.438 11.0114 174.531 11.4651 173.623 11.4651C173.283 11.4651 172.828 11.3517 172.488 11.2382C172.034 11.0114 171.694 10.6711 171.353 10.3309V14.3007H169.198V3.29858ZM171.353 7.15501C171.353 7.83551 171.466 8.51609 171.921 9.19667C172.261 9.65037 172.715 9.87717 173.168 9.87717C173.623 9.87717 174.076 9.65037 174.417 9.31003C174.757 8.74289 174.985 8.0624 174.871 7.3819C174.871 6.70132 174.757 6.02074 174.417 5.56705C173.85 4.88655 172.828 4.7731 172.147 5.34024C172.034 5.45369 171.921 5.45369 171.921 5.56705C171.466 5.90738 171.24 6.47443 171.353 7.15501Z" fill="#211915"/>
<path d="M178.161 7.15501C178.161 6.47443 178.388 5.79393 178.729 5.11335C179.069 4.43286 179.523 3.97916 180.204 3.63892C180.885 3.29858 181.566 3.07178 182.36 3.07178C183.494 3.07178 184.515 3.41203 185.31 4.20597C186.104 4.99999 186.445 6.02074 186.445 7.15501C186.445 8.2892 186.104 9.31003 185.31 10.1041C184.515 10.898 183.494 11.3517 182.36 11.3517C181.679 11.3517 180.885 11.1248 180.318 10.898C179.637 10.5578 179.182 10.1041 178.842 9.42348C178.388 8.74298 178.161 7.94895 178.161 7.15501ZM180.431 7.26846C180.431 7.94895 180.544 8.62954 180.998 9.08323C181.679 9.87717 182.814 9.87717 183.608 9.19667L183.722 9.08323C184.175 8.51609 184.289 7.94895 184.289 7.26846C184.289 6.58787 184.175 6.02074 183.722 5.45369C183.041 4.65966 181.906 4.5463 181.112 5.2268C180.998 5.2268 180.998 5.34024 180.885 5.45369C180.544 5.90738 180.318 6.58787 180.431 7.26846Z" fill="#211915"/>
<path d="M190.076 11.2381H187.92V3.29842H189.849V4.43269C190.076 3.979 190.416 3.63875 190.757 3.41186C190.984 3.29842 191.324 3.18506 191.665 3.18506C192.118 3.18506 192.686 3.29842 193.026 3.63875L192.345 5.45352C192.005 5.22663 191.665 5.11319 191.324 5.11319C191.097 5.11319 190.757 5.22663 190.53 5.34008C190.303 5.56688 190.076 5.90722 190.076 6.24746C189.963 7.15485 189.849 8.06224 189.849 8.85618L190.076 11.2381Z" fill="#211915"/>
<path d="M83.7533 29.7259V18.7239H85.9097V29.7259H83.7533Z" fill="#211915"/>
<path d="M89.6541 24.1683L87.7252 23.828C87.8386 23.1475 88.2929 22.5804 88.8597 22.1267C89.5407 21.673 90.3351 21.5596 91.2428 21.5596C91.9238 21.5596 92.7182 21.673 93.3992 21.8998C93.8526 22.1267 94.0793 22.3535 94.3069 22.8072C94.5336 23.3743 94.647 24.0549 94.5336 24.7354V27.2308C94.5336 27.6845 94.5336 28.2516 94.647 28.7053C94.7604 29.0455 94.8737 29.3858 94.9871 29.726H92.9449C92.8315 29.4992 92.8315 29.2723 92.7182 29.159L92.6048 28.9321C92.2639 29.2723 91.9238 29.4992 91.4695 29.726C91.0161 29.9529 90.5618 29.9529 90.1084 29.9529C89.4273 29.9529 88.7463 29.726 88.1795 29.2723C87.3852 28.4784 87.2718 27.3442 87.7252 26.4367C87.952 26.0965 88.2929 25.7563 88.633 25.6428C89.2006 25.416 89.7674 25.1891 90.3351 25.1891C91.0161 25.0757 91.6971 24.9623 92.3772 24.622V24.3952C92.3772 24.0549 92.2639 23.7146 92.0372 23.4878C91.6971 23.2609 91.3562 23.1475 90.9027 23.2609C90.5618 23.2609 90.3351 23.3743 89.995 23.4878C89.8816 23.6012 89.7674 23.828 89.6541 24.1683ZM92.4915 25.8697C92.0372 25.9831 91.6971 26.0965 91.2428 26.2099C90.7894 26.3234 90.4484 26.4367 90.1084 26.5502C89.8816 26.6636 89.6541 27.0039 89.6541 27.2308C89.6541 27.571 89.7674 27.7979 89.995 28.0247C90.2217 28.2516 90.5618 28.365 90.7894 28.365C91.2428 28.365 91.5837 28.2516 91.9238 28.0247C92.1505 27.7979 92.3772 27.571 92.3772 27.3442C92.4915 27.0039 92.4915 26.6636 92.4915 26.3234V25.8697Z" fill="#211915"/>
<path d="M100.888 18.7239H103.157V24.7353C103.157 25.3025 103.157 25.983 103.271 26.5501C103.384 27.0038 103.611 27.4575 103.952 27.6844C104.405 28.0246 104.859 28.1381 105.426 28.1381C105.881 28.1381 106.448 28.0246 106.902 27.7978C107.243 27.5709 107.469 27.2307 107.469 26.8904C107.583 26.3233 107.583 25.6427 107.583 25.0756V18.9508H109.852V24.7353C109.852 25.6427 109.852 26.5501 109.625 27.5709C109.511 28.0246 109.285 28.5918 108.945 28.932C108.604 29.2723 108.15 29.6126 107.696 29.8394C107.015 30.0663 106.335 30.1796 105.54 30.1796C104.746 30.1796 103.952 30.0663 103.157 29.8394C102.59 29.6126 102.136 29.3857 101.795 28.932C101.455 28.5918 101.229 28.1381 101.115 27.6844C101.001 26.777 100.888 25.8696 100.888 24.8488V18.7239Z" fill="#211915"/>
<path d="M119.27 29.7262H117.227V25.643C117.227 25.0758 117.227 24.5087 117.114 23.9416C117.001 23.7147 116.887 23.4879 116.66 23.3745C116.433 23.2611 116.206 23.1476 115.865 23.1476C115.525 23.1476 115.185 23.2611 114.844 23.4879C114.618 23.7147 114.391 23.9416 114.278 24.2819C114.164 24.849 114.05 25.5295 114.164 26.0967V29.7262H112.008V21.7865H113.937V22.9208C114.844 21.6732 116.433 21.2195 117.795 21.7865C118.135 21.9 118.475 22.1269 118.703 22.4671C118.93 22.6939 119.043 23.0342 119.156 23.3745C119.27 23.8282 119.27 24.2819 119.27 24.7356V29.7262Z" fill="#211915"/>
<path d="M121.426 20.6521V18.7239H123.582V20.6521H121.426ZM121.426 29.7259V21.7864H123.582V29.7259H121.426Z" fill="#211915"/>
<path d="M125.17 25.643C125.17 24.9625 125.397 24.2819 125.738 23.6014C126.078 22.9208 126.532 22.4671 127.213 22.1269C127.894 21.7865 128.575 21.5597 129.369 21.5597C130.503 21.5597 131.525 21.9 132.319 22.694C133.908 24.3953 133.908 27.004 132.319 28.7054C131.525 29.4994 130.503 29.9531 129.369 29.8396C128.688 29.8396 127.894 29.6128 127.327 29.3859C126.646 29.0457 126.191 28.592 125.851 27.9114C125.397 27.2309 125.17 26.4369 125.17 25.643ZM127.327 25.7564C127.327 26.4369 127.44 27.004 127.894 27.5712C128.575 28.3651 129.709 28.3651 130.503 27.798C130.503 27.798 130.617 27.6846 130.731 27.5712C131.184 27.004 131.298 26.4369 131.298 25.7564C131.298 25.0758 131.184 24.5088 130.731 23.9416C130.05 23.1477 128.916 23.1477 128.121 23.7147C128.007 23.7147 128.007 23.8282 127.894 23.9416C127.554 24.3953 127.327 25.0758 127.327 25.7564ZM128.235 20.7658L129.256 18.4973H131.639L129.596 20.7658H128.235Z" fill="#211915"/>
<path d="M142.305 29.726H140.263V25.6428C140.263 25.0757 140.263 24.5086 140.149 23.9415C140.035 23.7146 139.922 23.4878 139.695 23.3743C139.468 23.2609 139.241 23.1475 138.901 23.1475C138.561 23.1475 138.22 23.2609 137.88 23.4878C137.539 23.7146 137.425 23.9415 137.312 24.2817C137.199 24.8489 137.085 25.5294 137.199 26.0965V29.726H135.043V21.7865H136.972V22.9206C137.539 22.0133 138.561 21.5596 139.582 21.5596C140.035 21.5596 140.489 21.673 140.83 21.7865C141.17 21.8998 141.511 22.1267 141.737 22.467C141.965 22.6938 142.078 23.0341 142.192 23.3743C142.305 23.828 142.305 24.2817 142.305 24.7354V29.726Z" fill="#211915"/>
<path d="M148.772 29.7259V18.7239H156.943V20.5386H151.042V23.034H156.602V24.8488H151.042V27.7978H157.169V29.7259H148.772Z" fill="#211915"/>
<path d="M164.318 29.7262V28.4786C163.978 28.9323 163.637 29.2725 163.183 29.4994C162.729 29.7262 162.162 29.8396 161.708 29.8396C161.255 29.8396 160.687 29.7262 160.234 29.4994C159.779 29.2725 159.553 28.9323 159.325 28.4786C159.098 27.9114 158.985 27.3444 158.985 26.6638V21.7866H161.141V25.4162C161.141 26.0967 161.141 26.7772 161.255 27.4577C161.368 27.6846 161.481 27.9114 161.708 28.0249C161.935 28.1383 162.276 28.2518 162.502 28.2518C162.843 28.2518 163.183 28.1383 163.523 27.9114C163.751 27.6846 163.978 27.4577 164.091 27.2309C164.205 26.5504 164.318 25.7564 164.205 25.0758V21.7866H166.361V29.7262H164.318Z" fill="#211915"/>
<path d="M170.445 29.7264H168.29V21.7868H170.218V22.921C170.445 22.4673 170.786 22.127 171.126 21.9001C171.353 21.6733 171.694 21.6733 172.034 21.6733C172.488 21.6733 173.055 21.7868 173.396 22.127L172.715 23.9418C172.375 23.7149 172.034 23.6016 171.694 23.6016C171.466 23.6016 171.126 23.7149 170.9 23.8284C170.673 24.0553 170.445 24.3955 170.445 24.7357C170.332 25.6431 170.218 26.5505 170.218 27.4579L170.445 29.7264Z" fill="#211915"/>
<path d="M173.963 25.6427C173.963 24.9622 174.19 24.2816 174.53 23.6012C174.87 22.9206 175.325 22.4669 176.006 22.1266C176.686 21.7864 177.367 21.5595 178.161 21.5595C180.318 21.446 182.247 23.2608 182.247 25.4159C182.247 25.5294 182.247 25.6427 182.247 25.7562C182.247 26.8904 181.906 27.9112 181.112 28.7052C180.318 29.4992 179.296 29.9528 178.161 29.8394C177.48 29.8394 176.686 29.6126 176.006 29.3857C175.325 29.0455 174.87 28.5918 174.53 27.9112C174.076 27.2307 173.963 26.4368 173.963 25.6427ZM176.119 25.7562C176.119 26.4368 176.233 27.0038 176.686 27.5709C177.367 28.3649 178.502 28.3649 179.296 27.7978C179.41 27.6844 179.41 27.6844 179.523 27.5709C179.977 27.0038 180.09 26.4368 180.09 25.7562C180.09 25.0757 179.977 24.5085 179.523 23.9414C178.842 23.1475 177.708 23.1475 176.914 23.7146C176.8 23.828 176.8 23.828 176.686 23.9414C176.233 24.3951 176.006 25.0757 176.119 25.7562Z" fill="#211915"/>
<path d="M183.722 21.7865H185.651V22.9206C185.877 22.467 186.217 22.1267 186.672 21.8998C187.125 21.673 187.58 21.5596 188.147 21.5596C189.055 21.5596 189.963 22.0133 190.529 22.6938C191.21 23.6012 191.551 24.622 191.551 25.7562C191.665 26.8904 191.324 28.0247 190.529 28.8187C189.963 29.4992 189.055 29.9529 188.147 29.9529C187.693 29.9529 187.353 29.8395 186.899 29.726C186.445 29.4992 186.104 29.159 185.764 28.8187V32.7885H183.608V21.7865H183.722ZM185.877 25.6428C185.764 26.3234 185.991 27.0039 186.445 27.6845C186.785 28.1382 187.239 28.365 187.693 28.365C188.147 28.365 188.601 28.1382 188.942 27.7979C189.282 27.2308 189.508 26.5502 189.395 25.8697C189.395 25.1891 189.282 24.5086 188.942 24.0549C188.601 23.7146 188.147 23.4878 187.693 23.4878C187.239 23.4878 186.672 23.7146 186.445 24.0549C185.991 24.3952 185.764 24.9623 185.877 25.6428Z" fill="#211915"/>
<path d="M197.792 27.1176L199.948 27.4579C199.721 28.1384 199.267 28.819 198.7 29.1592C198.019 29.6129 197.338 29.8397 196.544 29.7264C195.296 29.8397 194.161 29.2727 193.48 28.3653C192.913 27.5713 192.686 26.5505 192.686 25.6431C192.573 24.5089 193.026 23.3746 193.707 22.5806C194.388 21.7867 195.296 21.4465 196.317 21.4465C197.338 21.333 198.359 21.7867 199.153 22.5806C199.948 23.6015 200.289 24.8491 200.174 26.2102H194.955C194.955 26.7773 195.069 27.231 195.409 27.6847C195.749 28.025 196.203 28.2518 196.657 28.2518C196.998 28.2518 197.225 28.1384 197.451 28.025C197.565 27.7981 197.792 27.4579 197.792 27.1176ZM198.019 25.076C198.019 24.6223 197.906 24.0552 197.565 23.7149C196.998 23.0343 195.977 23.0343 195.409 23.6015L195.296 23.7149C194.955 24.0552 194.841 24.6223 194.841 25.076H198.019Z" fill="#211915"/>
<path d="M203.352 24.1683L201.423 23.828C201.537 23.1475 201.991 22.5804 202.558 22.1267C203.239 21.673 204.033 21.5596 204.941 21.5596C205.622 21.5596 206.416 21.673 207.096 21.8998C207.551 22.1267 207.891 22.3535 208.118 22.8072C208.345 23.3743 208.458 24.0549 208.345 24.7354V27.2308C208.345 27.6845 208.345 28.2516 208.458 28.7053C208.572 29.0455 208.685 29.3858 208.798 29.726H206.643C206.53 29.4992 206.53 29.2723 206.416 29.159C206.416 29.0455 206.416 29.0455 206.303 28.9321C205.962 29.2723 205.622 29.4992 205.168 29.726C204.714 29.9529 204.26 29.9529 203.806 29.9529C203.125 29.9529 202.444 29.726 201.877 29.2723C201.423 28.8187 201.197 28.2516 201.197 27.571C201.197 27.1173 201.31 26.7771 201.537 26.4367C201.763 26.0965 202.104 25.7563 202.444 25.6428C203.012 25.416 203.579 25.1891 204.146 25.1891C204.827 25.0757 205.508 24.8489 206.189 24.622V24.3952C206.189 24.0549 206.075 23.7146 205.849 23.4878C205.508 23.2609 205.168 23.1475 204.714 23.2609C204.033 23.1475 203.465 23.4878 203.352 24.1683ZM206.189 25.8697C205.735 25.9831 205.281 26.0965 204.941 26.2099C204.601 26.3234 204.146 26.4367 203.806 26.5502C203.579 26.6636 203.352 27.0039 203.352 27.2308C203.352 27.571 203.465 27.7979 203.693 28.0247C203.92 28.2516 204.146 28.365 204.487 28.365C204.941 28.365 205.281 28.2516 205.622 28.0247C205.849 27.7979 206.075 27.571 206.075 27.3442C206.189 27.0039 206.189 26.6636 206.189 26.3234V25.8697Z" fill="#211915"/>
<path d="M89.4915 38.3523V45.6722H88.6336L84.6446 39.9249H84.5733V45.6722H83.687V38.3523H84.5449L88.5477 44.1139H88.619V38.3523H89.4915ZM93.4522 45.7866C92.9232 45.7866 92.4672 45.6698 92.0833 45.4363C91.702 45.2004 91.4083 44.8716 91.2005 44.4498C90.9961 44.0257 90.893 43.5325 90.893 42.9701C90.893 42.4078 90.9961 41.9121 91.2005 41.4833C91.4083 41.052 91.696 40.716 92.0653 40.4753C92.4371 40.2323 92.8708 40.1108 93.3663 40.1108C93.6523 40.1108 93.9348 40.1584 94.2139 40.2537C94.4922 40.3491 94.7464 40.5039 94.9748 40.7184C95.2041 40.9305 95.3862 41.2116 95.5218 41.5619C95.6575 41.9121 95.7254 42.3434 95.7254 42.8558V43.2132H91.4942V42.484H94.8675C94.8675 42.1742 94.8056 41.8979 94.682 41.6548C94.56 41.4118 94.3865 41.2199 94.1598 41.0794C93.9357 40.9388 93.672 40.8685 93.3663 40.8685C93.0305 40.8685 92.7403 40.9519 92.4946 41.1187C92.2516 41.2831 92.0644 41.4976 91.933 41.762C91.8025 42.0265 91.7372 42.3101 91.7372 42.6127V43.0988C91.7372 43.5134 91.8085 43.8648 91.951 44.1532C92.0962 44.4391 92.298 44.6571 92.5556 44.8072C92.8124 44.955 93.1113 45.0288 93.4522 45.0288C93.6738 45.0288 93.8738 44.9979 94.0525 44.9359C94.2337 44.8716 94.39 44.7762 94.5214 44.65C94.6519 44.5214 94.7532 44.3617 94.8245 44.1711L95.6395 44.3997C95.5536 44.6762 95.4102 44.9192 95.2075 45.1289C95.0049 45.3362 94.755 45.4982 94.457 45.615C94.159 45.7294 93.824 45.7866 93.4522 45.7866ZM97.4902 40.1823L98.8058 42.4269L100.121 40.1823H101.093L99.3202 42.9272L101.093 45.6722H100.121L98.8058 43.542L97.4902 45.6722H96.518L98.2622 42.9272L96.518 40.1823H97.4902ZM104.684 40.1823V40.8971H101.839V40.1823H104.684ZM102.669 38.867H103.512V44.0995C103.512 44.3378 103.546 44.5165 103.616 44.6357C103.687 44.7524 103.777 44.8311 103.887 44.8716C103.999 44.9097 104.117 44.9288 104.241 44.9288C104.334 44.9288 104.41 44.924 104.469 44.9145C104.53 44.9026 104.577 44.893 104.613 44.8859L104.785 45.6436C104.727 45.6651 104.647 45.6865 104.545 45.7079C104.442 45.7318 104.312 45.7436 104.155 45.7436C103.917 45.7436 103.684 45.6925 103.454 45.59C103.229 45.4876 103.04 45.3314 102.89 45.1218C102.742 44.9121 102.669 44.6476 102.669 44.3283V38.867ZM111.071 40.6398C110.993 40.3991 110.889 40.1835 110.76 39.9928C110.634 39.7998 110.483 39.6354 110.307 39.4996C110.132 39.3638 109.935 39.2601 109.713 39.1886C109.492 39.1171 109.249 39.0814 108.984 39.0814C108.55 39.0814 108.156 39.1934 107.801 39.4174C107.446 39.6413 107.163 39.9714 106.954 40.4075C106.744 40.8435 106.64 41.3784 106.64 42.0123C106.64 42.646 106.745 43.181 106.957 43.6171C107.169 44.0531 107.456 44.3831 107.819 44.6071C108.181 44.8311 108.588 44.9431 109.042 44.9431C109.461 44.9431 109.83 44.8537 110.149 44.675C110.471 44.4939 110.721 44.239 110.9 43.9102C111.081 43.5789 111.171 43.1893 111.171 42.7414L111.443 42.7986H109.242V42.0123H112.029V42.7986C112.029 43.4014 111.9 43.9256 111.643 44.3712C111.389 44.8168 111.036 45.1623 110.585 45.4077C110.137 45.6507 109.623 45.7722 109.042 45.7722C108.393 45.7722 107.824 45.6198 107.333 45.3148C106.844 45.0097 106.463 44.5761 106.189 44.0138C105.917 43.4514 105.782 42.7843 105.782 42.0123C105.782 41.4332 105.859 40.9126 106.014 40.4503C106.171 39.9857 106.393 39.5902 106.678 39.2637C106.964 38.9372 107.303 38.6871 107.693 38.5131C108.085 38.3392 108.514 38.2522 108.984 38.2522C109.37 38.2522 109.729 38.3106 110.064 38.4274C110.399 38.5417 110.698 38.7049 110.96 38.917C111.225 39.1267 111.445 39.378 111.621 39.6711C111.798 39.9618 111.919 40.2847 111.986 40.6398H111.071ZM115.735 45.7866C115.206 45.7866 114.749 45.6698 114.366 45.4363C113.985 45.2004 113.69 44.8716 113.483 44.4498C113.278 44.0257 113.176 43.5325 113.176 42.9701C113.176 42.4078 113.278 41.9121 113.483 41.4833C113.69 41.052 113.979 40.716 114.348 40.4753C114.72 40.2323 115.154 40.1108 115.649 40.1108C115.935 40.1108 116.218 40.1584 116.496 40.2537C116.775 40.3491 117.028 40.5039 117.258 40.7184C117.486 40.9305 117.668 41.2116 117.805 41.5619C117.94 41.9121 118.008 42.3434 118.008 42.8558V43.2132H113.776V42.484H117.15C117.15 42.1742 117.088 41.8979 116.964 41.6548C116.843 41.4118 116.668 41.2199 116.443 41.0794C116.218 40.9388 115.954 40.8685 115.649 40.8685C115.313 40.8685 115.022 40.9519 114.777 41.1187C114.533 41.2831 114.347 41.4976 114.216 41.762C114.084 42.0265 114.019 42.3101 114.019 42.6127V43.0988C114.019 43.5134 114.09 43.8648 114.234 44.1532C114.379 44.4391 114.58 44.6571 114.837 44.8072C115.095 44.955 115.394 45.0288 115.735 45.0288C115.956 45.0288 116.157 44.9979 116.335 44.9359C116.516 44.8716 116.673 44.7762 116.803 44.65C116.935 44.5214 117.036 44.3617 117.107 44.1711L117.922 44.3997C117.836 44.6762 117.692 44.9192 117.489 45.1289C117.287 45.3362 117.037 45.4982 116.739 45.615C116.441 45.7294 116.107 45.7866 115.735 45.7866ZM120.134 42.3697V45.6722H119.291V40.1823H120.106V41.04H120.177C120.306 40.7613 120.501 40.5373 120.764 40.3681C121.026 40.1965 121.364 40.1108 121.779 40.1108C122.15 40.1108 122.475 40.187 122.755 40.3395C123.033 40.4896 123.25 40.7184 123.405 41.0258C123.56 41.3307 123.637 41.7168 123.637 42.1838V45.6722H122.794V42.241C122.794 41.8097 122.682 41.4737 122.457 41.2331C122.234 40.9901 121.927 40.8685 121.536 40.8685C121.266 40.8685 121.026 40.9268 120.814 41.0436C120.604 41.1604 120.438 41.3307 120.316 41.5547C120.195 41.7788 120.134 42.0504 120.134 42.3697ZM127.48 45.7866C126.951 45.7866 126.495 45.6698 126.112 45.4363C125.73 45.2004 125.436 44.8716 125.229 44.4498C125.023 44.0257 124.921 43.5325 124.921 42.9701C124.921 42.4078 125.023 41.9121 125.229 41.4833C125.436 41.052 125.724 40.716 126.094 40.4753C126.465 40.2323 126.899 40.1108 127.395 40.1108C127.681 40.1108 127.963 40.1584 128.241 40.2537C128.52 40.3491 128.775 40.5039 129.003 40.7184C129.231 40.9305 129.414 41.2116 129.55 41.5619C129.686 41.9121 129.754 42.3434 129.754 42.8558V43.2132H125.522V42.484H128.896C128.896 42.1742 128.834 41.8979 128.71 41.6548C128.588 41.4118 128.415 41.2199 128.188 41.0794C127.964 40.9388 127.699 40.8685 127.395 40.8685C127.059 40.8685 126.768 40.9519 126.523 41.1187C126.28 41.2831 126.093 41.4976 125.961 41.762C125.83 42.0265 125.765 42.3101 125.765 42.6127V43.0988C125.765 43.5134 125.836 43.8648 125.979 44.1532C126.124 44.4391 126.326 44.6571 126.583 44.8072C126.841 44.955 127.139 45.0288 127.48 45.0288C127.702 45.0288 127.902 44.9979 128.081 44.9359C128.262 44.8716 128.418 44.7762 128.549 44.65C128.68 44.5214 128.781 44.3617 128.853 44.1711L129.668 44.3997C129.582 44.6762 129.438 44.9192 129.235 45.1289C129.033 45.3362 128.782 45.4982 128.484 45.615C128.187 45.7294 127.852 45.7866 127.48 45.7866ZM131.037 45.6722V40.1823H131.852V41.0114H131.909C132.009 40.7398 132.19 40.5194 132.452 40.3503C132.714 40.1811 133.009 40.0965 133.338 40.0965C133.4 40.0965 133.478 40.0977 133.571 40.1C133.664 40.1024 133.734 40.106 133.781 40.1108V40.9686C133.753 40.9615 133.688 40.9507 133.585 40.9364C133.485 40.9197 133.379 40.9114 133.267 40.9114C133 40.9114 132.762 40.9674 132.552 41.0794C132.345 41.1889 132.181 41.3415 132.059 41.5368C131.94 41.7299 131.88 41.9503 131.88 42.1981V45.6722H131.037ZM136.397 45.8008C136.049 45.8008 135.733 45.7353 135.45 45.6043C135.167 45.4708 134.942 45.2791 134.774 45.0288C134.607 44.7762 134.524 44.4713 134.524 44.1139C134.524 43.7993 134.586 43.5444 134.71 43.3489C134.834 43.1512 135 42.9963 135.207 42.8843C135.414 42.7724 135.643 42.689 135.893 42.6342C136.146 42.577 136.4 42.5316 136.655 42.4983C136.988 42.4555 137.258 42.4233 137.465 42.4018C137.675 42.378 137.828 42.3387 137.923 42.2839C138.021 42.2291 138.07 42.1338 138.07 41.9979V41.9693C138.07 41.6167 137.973 41.3427 137.781 41.1473C137.59 40.9519 137.3 40.8542 136.912 40.8542C136.509 40.8542 136.194 40.9424 135.964 41.1187C135.736 41.295 135.575 41.4833 135.482 41.6834L134.681 41.3975C134.825 41.0639 135.015 40.8041 135.253 40.6183C135.494 40.43 135.756 40.299 136.04 40.2251C136.326 40.1489 136.607 40.1108 136.883 40.1108C137.059 40.1108 137.262 40.1322 137.49 40.1751C137.722 40.2156 137.945 40.3002 138.159 40.4288C138.376 40.5576 138.556 40.7517 138.699 41.0114C138.842 41.2712 138.913 41.6191 138.913 42.0551V45.6722H138.07V44.9288H138.027C137.97 45.0479 137.874 45.1754 137.741 45.3112C137.607 45.447 137.43 45.5626 137.209 45.6579C136.987 45.7532 136.717 45.8008 136.397 45.8008ZM136.526 45.0431C136.859 45.0431 137.141 44.9776 137.369 44.8466C137.6 44.7155 137.775 44.5463 137.891 44.339C138.01 44.1317 138.07 43.9137 138.07 43.685V42.9129C138.034 42.9558 137.956 42.9951 137.834 43.0309C137.714 43.0643 137.576 43.0941 137.419 43.1203C137.265 43.144 137.113 43.1655 136.966 43.1846C136.82 43.2012 136.702 43.2156 136.612 43.2274C136.392 43.256 136.188 43.3025 135.997 43.3668C135.809 43.4288 135.656 43.5229 135.539 43.6492C135.425 43.7731 135.367 43.9423 135.367 44.1567C135.367 44.4498 135.477 44.6715 135.693 44.8216C135.912 44.9693 136.19 45.0431 136.526 45.0431ZM142.841 40.1823V40.8971H139.995V40.1823H142.841ZM140.824 38.867H141.668V44.0995C141.668 44.3378 141.703 44.5165 141.771 44.6357C141.844 44.7524 141.934 44.8311 142.044 44.8716C142.155 44.9097 142.273 44.9288 142.397 44.9288C142.49 44.9288 142.567 44.924 142.626 44.9145C142.685 44.9026 142.733 44.893 142.769 44.8859L142.94 45.6436C142.883 45.6651 142.804 45.6865 142.701 45.7079C142.598 45.7318 142.469 45.7436 142.312 45.7436C142.073 45.7436 141.839 45.6925 141.611 45.59C141.385 45.4876 141.196 45.3314 141.047 45.1218C140.899 44.9121 140.824 44.6476 140.824 44.3283V38.867ZM144.109 45.6722V40.1823H144.953V45.6722H144.109ZM144.538 39.2673C144.373 39.2673 144.232 39.2113 144.112 39.0993C143.996 38.9873 143.938 38.8526 143.938 38.6954C143.938 38.5382 143.996 38.4035 144.112 38.2915C144.232 38.1795 144.373 38.1235 144.538 38.1235C144.702 38.1235 144.843 38.1795 144.96 38.2915C145.079 38.4035 145.139 38.5382 145.139 38.6954C145.139 38.8526 145.079 38.9873 144.96 39.0993C144.843 39.2113 144.702 39.2673 144.538 39.2673ZM148.728 45.7866C148.232 45.7866 147.797 45.6686 147.423 45.4327C147.052 45.1969 146.761 44.8668 146.551 44.4427C146.344 44.0185 146.24 43.5229 146.24 42.9558C146.24 42.3839 146.344 41.8847 146.551 41.4583C146.761 41.0317 147.052 40.7005 147.423 40.4647C147.797 40.2287 148.232 40.1108 148.728 40.1108C149.224 40.1108 149.658 40.2287 150.029 40.4647C150.403 40.7005 150.694 41.0317 150.901 41.4583C151.111 41.8847 151.215 42.3839 151.215 42.9558C151.215 43.5229 151.111 44.0185 150.901 44.4427C150.694 44.8668 150.403 45.1969 150.029 45.4327C149.658 45.6686 149.224 45.7866 148.728 45.7866ZM148.728 45.0288C149.104 45.0288 149.414 44.9324 149.658 44.7393C149.901 44.5463 150.08 44.2926 150.197 43.978C150.314 43.6635 150.372 43.3228 150.372 42.9558C150.372 42.5888 150.314 42.247 150.197 41.93C150.08 41.6131 149.901 41.357 149.658 41.1616C149.414 40.9662 149.104 40.8685 148.728 40.8685C148.351 40.8685 148.041 40.9662 147.798 41.1616C147.555 41.357 147.376 41.6131 147.259 41.93C147.142 42.247 147.084 42.5888 147.084 42.9558C147.084 43.3228 147.142 43.6635 147.259 43.978C147.376 44.2926 147.555 44.5463 147.798 44.7393C148.041 44.9324 148.351 45.0288 148.728 45.0288ZM153.347 42.3697V45.6722H152.504V40.1823H153.319V41.04H153.39C153.519 40.7613 153.714 40.5373 153.975 40.3681C154.238 40.1965 154.577 40.1108 154.991 40.1108C155.362 40.1108 155.688 40.187 155.967 40.3395C156.245 40.4896 156.462 40.7184 156.617 41.0258C156.772 41.3307 156.85 41.7168 156.85 42.1838V45.6722H156.006V42.241C156.006 41.8097 155.894 41.4737 155.67 41.2331C155.446 40.9901 155.138 40.8685 154.748 40.8685C154.479 40.8685 154.238 40.9268 154.026 41.0436C153.816 41.1604 153.651 41.3307 153.529 41.5547C153.408 41.7788 153.347 42.0504 153.347 42.3697ZM158.506 45.6722V38.3523H162.923V39.1386H159.392V41.6119H162.694V42.3983H159.392V44.8859H162.98V45.6722H158.506ZM169.324 38.3523H170.211V43.1988C170.211 43.6992 170.093 44.146 169.857 44.5392C169.623 44.93 169.294 45.2385 168.867 45.4649C168.44 45.6889 167.94 45.8008 167.366 45.8008C166.791 45.8008 166.291 45.6889 165.864 45.4649C165.438 45.2385 165.107 44.93 164.871 44.5392C164.637 44.146 164.52 43.6992 164.52 43.1988V38.3523H165.407V43.1274C165.407 43.4848 165.486 43.8029 165.643 44.0817C165.8 44.3581 166.024 44.5761 166.314 44.7358C166.608 44.893 166.958 44.9717 167.366 44.9717C167.773 44.9717 168.123 44.893 168.417 44.7358C168.71 44.5761 168.934 44.3581 169.088 44.0817C169.245 43.8029 169.324 43.4848 169.324 43.1274V38.3523Z" fill="#211915"/>
<path d="M74.2474 0.665283H1.12244V49.1433H74.2474V0.665283Z" stroke="black"/>
<mask id="mask0_9099_20233" style="mask-type:luminance" maskUnits="userSpaceOnUse" x="18" y="6" width="39" height="38">
<path d="M18.7273 24.1685H20.6563L21.2237 22.3537L21.791 24.1685H23.7201L22.1314 25.3027L22.6988 27.1175L21.1102 25.9832L19.5216 27.1175L20.089 25.3027L18.7273 24.1685ZM24.9682 35.1705L23.3796 34.0363L21.791 35.1705L22.3584 33.3558L20.7698 32.2216H22.6988L23.2661 30.4068L23.947 32.2216H25.8759L24.2874 33.3558L24.9682 35.1705ZM24.4008 17.2496L24.9682 19.0644L23.3796 17.9302L21.791 19.0644L22.3584 17.2496L20.7698 16.1154H22.6988L23.2661 14.3007L23.8335 16.1154H25.7625L24.4008 17.2496ZM28.7127 10.2173L29.2801 8.40258L29.8474 10.2173H31.7764L30.1879 11.3516L30.7553 13.1664L29.1666 12.0321L27.578 13.1664L28.1454 11.3516L26.5568 10.2173H28.7127ZM30.9822 41.182L29.3936 40.0478L27.805 41.182L28.3723 39.3672L26.7838 38.233H28.7127L29.2801 36.4183L29.8474 38.233H31.89L30.3013 39.3672L30.9822 41.182ZM36.7692 8.06233L37.3365 6.24756L37.9039 8.06233H39.8329L38.2443 9.1966L38.8116 11.0114L37.2231 9.8771L35.6345 11.0114L36.2018 9.1966L34.6132 8.06233H36.7692ZM39.0386 43.3371L37.45 42.2028L35.8614 43.3371L36.4288 41.5223L34.8402 40.388H36.7692L37.3365 38.5733L37.9039 40.388H39.8329L38.2443 41.5223L39.0386 43.3371ZM47.095 41.182L45.5064 40.0478L43.9178 41.182L44.4852 39.3672L42.8966 38.233H44.8256L45.393 36.4183L45.9603 38.233H47.8894L46.3007 39.3672L47.095 41.182ZM46.5277 11.3516L47.095 13.1664L45.5064 12.0321L43.9178 13.1664L44.4852 11.3516L42.8966 10.2173H44.9391L45.5064 8.40258L46.0738 10.2173H48.1162L46.5277 11.3516ZM50.8396 16.1154L51.4069 14.3007L51.9743 16.1154H53.9033L52.3147 17.2496L52.882 19.0644L51.2935 17.9302L49.7049 19.0644L50.3857 17.2496L48.7971 16.1154H50.8396ZM52.9955 35.284L51.4069 34.1498L49.8183 35.284L50.3857 33.3558L48.7971 32.2216H50.7261L51.2935 30.4068L51.9743 32.2216H53.9033L52.3147 33.3558L52.9955 35.284ZM55.1514 27.231L53.5629 26.0967L51.9743 27.231L52.5416 25.4162L50.9531 24.2819H52.9955L53.5629 22.4671L54.1302 24.2819H56.1727L54.5841 25.4162L55.1514 27.231Z" fill="white"/>
</mask>
<g mask="url(#mask0_9099_20233)">
<path d="M18.7273 24.1685H20.6563L21.2237 22.3537L21.791 24.1685H23.7201L22.1314 25.3027L22.6988 27.1175L21.1102 25.9832L19.5216 27.1175L20.089 25.3027L18.7273 24.1685ZM24.9682 35.1705L23.3796 34.0363L21.791 35.1705L22.3584 33.3558L20.7698 32.2216H22.6988L23.2661 30.4068L23.947 32.2216H25.8759L24.2874 33.3558L24.9682 35.1705ZM24.4008 17.2496L24.9682 19.0644L23.3796 17.9302L21.791 19.0644L22.3584 17.2496L20.7698 16.1154H22.6988L23.2661 14.3007L23.8335 16.1154H25.7625L24.4008 17.2496ZM28.7127 10.2173L29.2801 8.40258L29.8474 10.2173H31.7764L30.1879 11.3516L30.7553 13.1664L29.1666 12.0321L27.578 13.1664L28.1454 11.3516L26.5568 10.2173H28.7127ZM30.9822 41.182L29.3936 40.0478L27.805 41.182L28.3723 39.3672L26.7838 38.233H28.7127L29.2801 36.4183L29.8474 38.233H31.89L30.3013 39.3672L30.9822 41.182ZM36.7692 8.06233L37.3365 6.24756L37.9039 8.06233H39.8329L38.2443 9.1966L38.8116 11.0114L37.2231 9.8771L35.6345 11.0114L36.2018 9.1966L34.6132 8.06233H36.7692ZM39.0386 43.3371L37.45 42.2028L35.8614 43.3371L36.4288 41.5223L34.8402 40.388H36.7692L37.3365 38.5733L37.9039 40.388H39.8329L38.2443 41.5223L39.0386 43.3371ZM47.095 41.182L45.5064 40.0478L43.9178 41.182L44.4852 39.3672L42.8966 38.233H44.8256L45.393 36.4183L45.9603 38.233H47.8894L46.3007 39.3672L47.095 41.182ZM46.5277 11.3516L47.095 13.1664L45.5064 12.0321L43.9178 13.1664L44.4852 11.3516L42.8966 10.2173H44.9391L45.5064 8.40258L46.0738 10.2173H48.1162L46.5277 11.3516ZM50.8396 16.1154L51.4069 14.3007L51.9743 16.1154H53.9033L52.3147 17.2496L52.882 19.0644L51.2935 17.9302L49.7049 19.0644L50.3857 17.2496L48.7971 16.1154H50.8396ZM52.9955 35.284L51.4069 34.1498L49.8183 35.284L50.3857 33.3558L48.7971 32.2216H50.7261L51.2935 30.4068L51.9743 32.2216H53.9033L52.3147 33.3558L52.9955 35.284ZM55.1514 27.231L53.5629 26.0967L51.9743 27.231L52.5416 25.4162L50.9531 24.2819H52.9955L53.5629 22.4671L54.1302 24.2819H56.1727L54.5841 25.4162L55.1514 27.231Z" stroke="#211915" stroke-width="2"/>
</g>
</svg>
